<?xml version="1.0" encoding="utf-8"?>
<!-- Generator: Adobe Illustrator 16.0.0, SVG Export Plug-In . SVG Version: 6.00 Build 0)  -->
<!DOCTYPE svg PUBLIC "-//W3C//DTD SVG 1.1//EN" "http://www.w3.org/Graphics/SVG/1.1/DTD/svg11.dtd">
<svg version="1.1" id="Layer_1" xmlns="http://www.w3.org/2000/svg" xmlns:xlink="http://www.w3.org/1999/xlink" x="0px" y="0px"
	 width="18px" height="15.375px" viewBox="0 0 18 15.375" enable-background="new 0 0 18 15.375" xml:space="preserve">
<g>
	<path fill="#25719B" d="M9.394,2.724v12.12c0,0,4.592-2.897,8.432-1.054V1.256C17.863,1.256,13.686-1.116,9.394,2.724z
		 M13.158,5.923c0.075,0.15,0.264,0.264,0.489,0.413c0.527,0.264,0.941,0.527,1.168,0.791c0.263,0.264,0.375,0.677,0.375,1.166
		c0,0.49-0.112,0.867-0.375,1.169c-0.264,0.3-0.604,0.451-1.017,0.526v0.828h-0.603V9.951c-0.452-0.038-0.828-0.264-1.091-0.564
		c-0.302-0.34-0.453-0.792-0.453-1.432h1.168c0,0.376,0.074,0.64,0.188,0.828c0.112,0.151,0.264,0.264,0.489,0.264
		c0.188,0,0.302-0.074,0.414-0.188c0.075-0.15,0.151-0.303,0.151-0.528s-0.038-0.414-0.151-0.564
		c-0.074-0.15-0.264-0.264-0.489-0.414c-0.527-0.226-0.94-0.489-1.204-0.753s-0.376-0.677-0.376-1.166
		c0-0.452,0.112-0.866,0.376-1.167s0.603-0.49,1.054-0.526V2.798h0.602v0.904c0.415,0.074,0.754,0.301,0.979,0.64
		s0.376,0.79,0.376,1.317h-1.166c0-0.339-0.038-0.565-0.151-0.753c-0.112-0.188-0.226-0.264-0.376-0.264
		c-0.151,0-0.302,0.076-0.377,0.226c-0.074,0.15-0.112,0.34-0.112,0.565C13.046,5.583,13.084,5.771,13.158,5.923z"/>
	<path fill="#25719B" d="M0.173,1.256V13.79c3.877-1.844,8.469,1.054,8.469,1.054V2.724C4.351-1.116,0.173,1.256,0.173,1.256z
		 M7.588,12.246c-0.075,0.076-0.188,0.113-0.301,0.113c-0.076,0-0.188-0.037-0.264-0.113c-2.371-2.145-4.855-0.902-4.968-0.827
		c-0.188,0.112-0.414,0.038-0.489-0.151c-0.113-0.188-0.038-0.413,0.151-0.527c0.037,0,3.086-1.58,5.834,0.942
		C7.701,11.833,7.738,12.096,7.588,12.246z M7.588,9.574C7.513,9.649,7.4,9.688,7.287,9.688c-0.076,0-0.188-0.038-0.264-0.113
		C4.652,7.428,2.168,8.67,2.055,8.746C1.867,8.859,1.641,8.783,1.528,8.595C1.416,8.407,1.49,8.181,1.679,8.067
		c0.038,0,3.086-1.58,5.834,0.943C7.701,9.16,7.738,9.424,7.588,9.574z M7.588,6.901C7.513,6.977,7.4,7.014,7.287,7.014
		c-0.076,0-0.188-0.037-0.264-0.112C4.652,4.756,2.168,5.998,2.055,6.073C1.867,6.187,1.641,6.11,1.566,5.923
		C1.453,5.734,1.528,5.509,1.717,5.396c0.037,0,3.086-1.581,5.834,0.94C7.701,6.487,7.738,6.751,7.588,6.901z M7.588,4.229
		C7.513,4.304,7.4,4.342,7.287,4.342c-0.076,0-0.188-0.038-0.264-0.112C4.652,2.083,2.168,3.325,2.055,3.4
		C1.867,3.514,1.641,3.438,1.528,3.251C1.416,3.062,1.49,2.836,1.679,2.724c0.038,0,3.086-1.581,5.834,0.94
		C7.701,3.814,7.738,4.078,7.588,4.229z"/>
</g>
</svg>
