<?xml version="1.0" encoding="utf-8"?>
<!-- Generator: Adobe Illustrator 16.0.0, SVG Export Plug-In . SVG Version: 6.00 Build 0)  -->
<!DOCTYPE svg PUBLIC "-//W3C//DTD SVG 1.1//EN" "http://www.w3.org/Graphics/SVG/1.1/DTD/svg11.dtd">
<svg version="1.1" id="Layer_1" xmlns="http://www.w3.org/2000/svg" xmlns:xlink="http://www.w3.org/1999/xlink" x="0px" y="0px"
	 width="20px" height="20px" viewBox="0 0 20 20" enable-background="new 0 0 20 20" xml:space="preserve">
<circle fill="none" stroke="#C42020" stroke-width="2" stroke-miterlimit="10" cx="10" cy="10" r="8.625"/>
<g>
	<path fill="#C42020" d="M11.198,6.6c0,0.168-0.029,0.391-0.09,0.668c-0.059,0.277-0.135,0.603-0.225,0.977
		c-0.086,0.354-0.185,0.794-0.295,1.321c-0.111,0.528-0.228,1.18-0.351,1.956H9.763c-0.123-0.784-0.24-1.438-0.351-1.959
		S9.202,8.604,9.116,8.25C9.038,7.926,8.966,7.608,8.9,7.299C8.834,6.988,8.802,6.756,8.802,6.6c0-0.316,0.117-0.587,0.351-0.811
		c0.234-0.224,0.516-0.336,0.844-0.336c0.324,0,0.605,0.112,0.844,0.336S11.198,6.283,11.198,6.6z M11.187,13.407
		c0,0.313-0.119,0.58-0.355,0.804c-0.236,0.224-0.512,0.336-0.828,0.336c-0.32,0-0.599-0.112-0.834-0.336
		c-0.236-0.224-0.354-0.491-0.354-0.804s0.118-0.582,0.354-0.811c0.236-0.228,0.514-0.342,0.834-0.342
		c0.316,0,0.592,0.114,0.828,0.342C11.067,12.825,11.187,13.095,11.187,13.407z"/>
</g>
</svg>
