<?xml version="1.0" encoding="utf-8"?>
<!-- Generator: Adobe Illustrator 16.0.0, SVG Export Plug-In . SVG Version: 6.00 Build 0)  -->
<!DOCTYPE svg PUBLIC "-//W3C//DTD SVG 1.1//EN" "http://www.w3.org/Graphics/SVG/1.1/DTD/svg11.dtd">
<svg version="1.1" id="Layer_1" xmlns="http://www.w3.org/2000/svg" xmlns:xlink="http://www.w3.org/1999/xlink" x="0px" y="0px"
	 width="20px" height="16.708px" viewBox="0 0 20 16.708" enable-background="new 0 0 20 16.708" xml:space="preserve">
<g>
	<g>
		<defs>
			<path id="SVGID_1_" d="M8.456,8.184V7.039h1.159v1.145H8.456z M6.932,8.184V7.039H8.09v1.145H6.932z M8.456,9.666V8.521h1.159
				v1.144H8.456z M6.932,9.666V8.521H8.09v1.144H6.932z"/>
		</defs>
		<clipPath id="SVGID_2_">
			<use xlink:href="#SVGID_1_"  overflow="visible"/>
		</clipPath>
		<g clip-path="url(#SVGID_2_)">
			<defs>
				<rect id="SVGID_3_" x="-496.892" y="-431.497" width="1410.582" height="1585.142"/>
			</defs>
			<clipPath id="SVGID_4_">
				<use xlink:href="#SVGID_3_"  overflow="visible"/>
			</clipPath>
			<rect x="2.524" y="2.631" clip-path="url(#SVGID_4_)" fill="#A2B5C7" width="11.5" height="11.443"/>
		</g>
	</g>
	<g>
		<defs>
			<polygon id="SVGID_5_" points="18.353,3.702 13.526,8.394 8.271,13.575 2.968,8.333 8.271,3.093 12.284,7.05 13.6,5.75 
				8.271,0.495 5.273,3.458 3.515,3.458 3.515,5.195 0.338,8.333 8.271,16.172 19.661,4.996 			"/>
		</defs>
		<clipPath id="SVGID_6_">
			<use xlink:href="#SVGID_5_"  overflow="visible"/>
		</clipPath>
		<g clip-path="url(#SVGID_6_)">
			<defs>
				<rect id="SVGID_7_" x="-496.892" y="-431.497" width="1410.582" height="1585.142"/>
			</defs>
			<clipPath id="SVGID_8_">
				<use xlink:href="#SVGID_7_"  overflow="visible"/>
			</clipPath>
			<rect x="-4.069" y="-3.913" clip-path="url(#SVGID_8_)" fill="#A2B5C7" width="28.14" height="24.494"/>
		</g>
	</g>
</g>
</svg>
