<?xml version="1.0" encoding="utf-8"?>
<!-- Generator: Adobe Illustrator 16.0.0, SVG Export Plug-In . SVG Version: 6.00 Build 0)  -->
<!DOCTYPE svg PUBLIC "-//W3C//DTD SVG 1.1//EN" "http://www.w3.org/Graphics/SVG/1.1/DTD/svg11.dtd">
<svg version="1.1" id="Layer_1" xmlns="http://www.w3.org/2000/svg" xmlns:xlink="http://www.w3.org/1999/xlink" x="0px" y="0px"
	 width="30px" height="30px" viewBox="0 0 30 30" enable-background="new 0 0 30 30" xml:space="preserve">
<g>
	<path fill="#A2B5C7" d="M18.509,9.586l1.323,15.211v3.589h6.552v-3.589l1.322-15.211l-0.115-0.109
		c-0.061-0.058-1.511-1.4-4.483-1.4s-4.423,1.343-4.484,1.4L18.509,9.586z M27.024,9.858l-0.157,1.821H19.35l-0.16-1.821
		c0.377-0.287,1.674-1.127,3.918-1.127C25.351,8.731,26.646,9.57,27.024,9.858z M20.813,22.162v-0.654h-0.609l-0.798-9.173h7.402
		l-0.796,9.173h-5.327v0.654h5.27l-0.2,2.294h-5.296l-0.199-2.294H20.813z M20.486,26.422v-1.311h5.241v1.311h-1.356
		c-0.146-0.565-0.654-0.984-1.264-0.984c-0.608,0-1.116,0.419-1.264,0.984H20.486z M23.106,26.094c0.242,0,0.451,0.132,0.564,0.328
		h-1.128C22.657,26.226,22.865,26.094,23.106,26.094z M20.486,27.731v-0.655h5.241v0.655H20.486z"/>
	<path fill="#A2B5C7" d="M21.797,15.61h0.983v2.948h0.655V15.61h0.982c0.902,0,1.638-0.734,1.638-1.638v-0.328h-1.638
		c-0.537,0-1.012,0.265-1.311,0.666c-0.298-0.401-0.772-0.666-1.311-0.666h-1.639v0.328C20.158,14.876,20.894,15.61,21.797,15.61z
		 M23.492,14.955c0.134-0.381,0.498-0.654,0.926-0.654h0.926c-0.135,0.381-0.499,0.654-0.926,0.654H23.492z M20.87,14.301h0.927
		c0.428,0,0.791,0.273,0.928,0.654h-0.928C21.37,14.955,21.006,14.682,20.87,14.301z"/>
	<path fill="#A2B5C7" d="M2.294,1.614v20.294c0,1.043,0.744,1.914,1.728,2.116v4.361h10.363v-4.361
		c0.984-0.202,1.729-1.073,1.729-2.116V1.614H2.294z M15.248,2.478V5.5H3.158V2.478H15.248z M4.885,25.796v-1.728h8.636v1.728
		h-2.652c-0.193-0.744-0.863-1.297-1.666-1.297s-1.473,0.553-1.666,1.297H4.885z M9.203,25.364c0.318,0,0.593,0.175,0.744,0.432
		H8.459C8.609,25.539,8.885,25.364,9.203,25.364z M4.885,27.522v-0.863h8.636v0.863H4.885z M3.158,21.908v-2.59h0.863v-0.863H3.158
		V6.363h12.09v12.092H3.852v0.863h11.396v2.59c0,0.715-0.58,1.298-1.294,1.298h-9.5C3.739,23.206,3.158,22.623,3.158,21.908z"/>
	<path fill="#A2B5C7" d="M4.021,12.41c0,2.856,2.324,5.181,5.182,5.181c2.858,0,5.182-2.324,5.182-5.181
		c0-2.858-2.323-5.183-5.182-5.183C6.345,7.228,4.021,9.552,4.021,12.41z M4.885,12.41c0-2.382,1.938-4.319,4.318-4.319
		s4.318,1.938,4.318,4.319c0,2.38-1.937,4.317-4.318,4.317S4.885,14.79,4.885,12.41z"/>
	<path fill="#A2B5C7" d="M5.748,10.682v0.433c0,1.19,0.969,2.158,2.159,2.158h0.864v2.159h0.864v-2.159h0.863
		c1.191,0,2.159-0.968,2.159-2.158v-0.433H10.93c-0.709,0-1.333,0.349-1.727,0.877c-0.394-0.528-1.019-0.877-1.727-0.877H5.748z
		 M9.709,12.41c0.178-0.503,0.659-0.864,1.221-0.864h0.791c-0.179,0.502-0.659,0.864-1.222,0.864H9.709z M6.686,11.546h0.791
		c0.562,0,1.042,0.361,1.221,0.864h-0.79C7.345,12.41,6.864,12.048,6.686,11.546z"/>
</g>
</svg>
