<?xml version="1.0" encoding="utf-8"?>
<!-- Generator: Adobe Illustrator 16.0.0, SVG Export Plug-In . SVG Version: 6.00 Build 0)  -->
<!DOCTYPE svg PUBLIC "-//W3C//DTD SVG 1.1//EN" "http://www.w3.org/Graphics/SVG/1.1/DTD/svg11.dtd">
<svg version="1.1" id="Layer_1" xmlns="http://www.w3.org/2000/svg" xmlns:xlink="http://www.w3.org/1999/xlink" x="0px" y="0px"
	 width="9px" height="9px" viewBox="0 0 9 9" enable-background="new 0 0 9 9" xml:space="preserve">
<g>
	<defs>
		<path id="SVGID_1_" d="M0.737,0.003c-0.188,0-0.379,0.069-0.522,0.212c-0.286,0.287-0.286,0.752,0,1.038L3.462,4.5L0.215,7.747
			c-0.286,0.286-0.286,0.751,0,1.038c0.287,0.287,0.752,0.287,1.038,0L4.5,5.538l3.247,3.247c0.286,0.287,0.751,0.287,1.038,0
			c0.286-0.287,0.286-0.752,0-1.038L5.538,4.5l3.247-3.247c0.286-0.286,0.286-0.751,0-1.038c-0.287-0.287-0.752-0.287-1.038,0
			L4.5,3.462L1.253,0.215C1.11,0.072,0.925,0.003,0.737,0.003z"/>
	</defs>
	<clipPath id="SVGID_2_">
		<use xlink:href="#SVGID_1_"  overflow="visible"/>
	</clipPath>
	<g clip-path="url(#SVGID_2_)">
		<defs>
			<rect id="SVGID_3_" x="-824" y="-891.18" width="1600" height="2615"/>
		</defs>
		<clipPath id="SVGID_4_">
			<use xlink:href="#SVGID_3_"  overflow="visible"/>
		</clipPath>
		<rect x="-5" y="-5" clip-path="url(#SVGID_4_)" width="19" height="19"/>
	</g>
</g>
</svg>
