<?xml version="1.0" encoding="utf-8"?>
<!-- Generator: Adobe Illustrator 16.0.0, SVG Export Plug-In . SVG Version: 6.00 Build 0)  -->
<!DOCTYPE svg PUBLIC "-//W3C//DTD SVG 1.1//EN" "http://www.w3.org/Graphics/SVG/1.1/DTD/svg11.dtd">
<svg version="1.1" id="Layer_1" xmlns="http://www.w3.org/2000/svg" xmlns:xlink="http://www.w3.org/1999/xlink" x="0px" y="0px"
	 width="40px" height="40px" viewBox="0 0 40 40" enable-background="new 0 0 40 40" xml:space="preserve">
<g>
	<g>
		<g>
			<path fill="#A2B5C7" d="M34.855,16.19h0.756c-0.38-4.589-2.962-9.338-7.897-11.843c-0.505-0.262-1.045-0.497-1.605-0.705
				c-1.111-0.409-2.324-0.726-3.629-0.911c-0.865-0.118-1.775-0.182-2.733-0.19c-0.045,0-0.088,0-0.125,0
				c-7.167,0-14.637,4.214-15.764,13.649h1.287v3.695v4.936H2.808c-1.108,0-2.012-0.857-2.012-1.916v-4.8
				c0-0.873,0.624-1.615,1.464-1.847C3.386,5.616,11.742,0.88,19.755,0.96c0.984,0.008,1.97,0.083,2.945,0.244
				c1.332,0.215,2.64,0.553,3.904,1.038c0.604,0.231,1.189,0.489,1.76,0.785c4.721,2.383,8.376,6.812,8.827,13.163
				c1.111,0,2.013,0.861,2.013,1.916v4.8c0,1.021-0.839,1.852-1.89,1.916c-0.505,3.12-2.857,5.71-6.043,6.912
				c-0.279,0.114-0.557,0.197-0.84,0.279c-0.287,0.088-0.568,0.15-0.865,0.214c0.026-0.063,0.043-0.126,0.051-0.186
				c-0.042,0.071-0.08,0.135-0.125,0.202c0.021-0.017,0.054-0.017,0.074-0.017c-0.147,0.466-0.417,0.843-0.751,1.047
				c-0.151,0.092-0.324,0.139-0.498,0.139h-4.356c-0.755,0-1.389-0.933-1.389-2.059s0.634-2.059,1.389-2.059h4.356
				c0.57,0,1.075,0.539,1.282,1.3c0.262-0.063,0.515-0.135,0.76-0.217c0.081-0.028,0.155-0.063,0.236-0.079
				c0.162-0.071,0.316-0.127,0.477-0.189c0.009,0,0.017-0.009,0.026-0.009c0.3-0.126,0.586-0.267,0.86-0.426
				c1.931-1.084,3.336-2.817,3.744-4.854h-0.847L34.855,16.19L34.855,16.19z"/>
			<path fill="#A2B5C7" d="M33.258,20.345c0,2.995-0.887,6.272-2.329,9.274c-0.063-0.143-0.134-0.277-0.216-0.412
				c-0.535-0.902-1.413-1.497-2.396-1.497h-4.356c-1.642,0-2.971,1.632-2.971,3.644s1.329,3.644,2.971,3.644h3.513
				c-0.695,0.833-1.429,1.569-2.192,2.204c-2.937,2.568-8.25,2.37-11.238-0.106c-4.221-3.809-7.435-11.219-7.435-17.209
				c0-8.481,6.938-15.34,13.493-15.34C26.669,4.545,33.258,11.872,33.258,20.345z"/>
			<path fill="#A2B5C7" d="M29.49,32.243c0.047-0.067,0.085-0.131,0.127-0.202c-0.01,0.06-0.026,0.122-0.051,0.186
				C29.546,32.227,29.513,32.227,29.49,32.243z"/>
		</g>
	</g>
</g>
</svg>
