<?xml version="1.0" encoding="utf-8"?>
<!-- Generator: Adobe Illustrator 16.0.0, SVG Export Plug-In . SVG Version: 6.00 Build 0)  -->
<!DOCTYPE svg PUBLIC "-//W3C//DTD SVG 1.1//EN" "http://www.w3.org/Graphics/SVG/1.1/DTD/svg11.dtd">
<svg version="1.1" id="Layer_1" xmlns="http://www.w3.org/2000/svg" xmlns:xlink="http://www.w3.org/1999/xlink" x="0px" y="0px"
	 width="25.903px" height="21.735px" viewBox="0 0 25.903 21.735" enable-background="new 0 0 25.903 21.735" xml:space="preserve">
<g>
	<g>
		<defs>
			<path id="SVGID_1_" d="M10.881,10.66V9.073h1.554v1.587H10.881z M8.838,10.66V9.073h1.553v1.587H8.838z M10.882,12.715v-1.587
				h1.553v1.587H10.882z M8.838,12.715v-1.587h1.553v1.587H8.838z"/>
		</defs>
		<clipPath id="SVGID_2_">
			<use xlink:href="#SVGID_1_"  overflow="visible"/>
		</clipPath>
		<g clip-path="url(#SVGID_2_)">
			<defs>
				<rect id="SVGID_3_" x="-261" y="-837" width="1600" height="2572"/>
			</defs>
			<clipPath id="SVGID_4_">
				<use xlink:href="#SVGID_3_"  overflow="visible"/>
			</clipPath>
			<rect x="3.838" y="4.073" clip-path="url(#SVGID_4_)" fill="#FFFFFF" width="13.597" height="13.642"/>
		</g>
	</g>
	<g>
		<defs>
			<polygon id="SVGID_5_" points="24.149,4.447 17.679,10.95 10.635,18.133 3.525,10.867 10.635,3.602 16.014,9.088 17.777,7.287 
				10.635,0 6.615,4.108 4.259,4.108 4.259,6.515 0,10.867 10.635,21.735 25.903,6.24 			"/>
		</defs>
		<clipPath id="SVGID_6_">
			<use xlink:href="#SVGID_5_"  overflow="visible"/>
		</clipPath>
		<g clip-path="url(#SVGID_6_)">
			<defs>
				<rect id="SVGID_7_" x="-261" y="-837" width="1600" height="2572"/>
			</defs>
			<clipPath id="SVGID_8_">
				<use xlink:href="#SVGID_7_"  overflow="visible"/>
			</clipPath>
			<rect x="-5" y="-5" clip-path="url(#SVGID_8_)" fill="#FFFFFF" width="35.903" height="31.735"/>
		</g>
	</g>
</g>
</svg>
