<?xml version="1.0" encoding="utf-8"?>
<!-- Generator: Adobe Illustrator 16.0.0, SVG Export Plug-In . SVG Version: 6.00 Build 0)  -->
<!DOCTYPE svg PUBLIC "-//W3C//DTD SVG 1.1//EN" "http://www.w3.org/Graphics/SVG/1.1/DTD/svg11.dtd">
<svg version="1.1" id="Layer_1" xmlns="http://www.w3.org/2000/svg" xmlns:xlink="http://www.w3.org/1999/xlink" x="0px" y="0px"
	 width="20.666px" height="20.666px" viewBox="0 0 20.666 20.666" enable-background="new 0 0 20.666 20.666" xml:space="preserve">
<path fill-rule="evenodd" clip-rule="evenodd" fill="#CDD6DF" d="M14.782,4.415c0.457,0,0.827-0.374,0.827-0.835V0.835
	c0-0.461-0.37-0.835-0.827-0.835s-0.827,0.374-0.827,0.835V3.58C13.955,4.042,14.325,4.415,14.782,4.415z M5.884,4.415
	c0.457,0,0.827-0.374,0.827-0.835V0.835C6.711,0.374,6.34,0,5.884,0C5.427,0,5.056,0.374,5.056,0.835V3.58
	C5.056,4.042,5.427,4.415,5.884,4.415z M19.563,2.041h-2.96v1.54c0,1.013-0.816,1.837-1.82,1.837s-1.82-0.824-1.82-1.837v-1.54
	H7.704v1.54c0,1.013-0.817,1.837-1.82,1.837c-1.004,0-1.821-0.824-1.821-1.837v-1.54H1.104C0.494,2.041,0,2.538,0,3.154v4.563
	h20.666V3.154C20.666,2.538,20.172,2.041,19.563,2.041z M0,19.553c0,0.615,0.494,1.113,1.104,1.113h18.459
	c0.609,0,1.104-0.498,1.104-1.113V8.607H0V19.553z M15.272,14.1h2.822v-2.848h-2.822V14.1z M15.272,18.161h2.822v-2.847h-2.822
	V18.161z M11.039,14.1h2.822v-2.848h-2.822V14.1z M11.039,18.161h2.822v-2.847h-2.822V18.161z M6.805,14.1h2.822v-2.848H6.805V14.1z
	 M6.805,18.161h2.822v-2.847H6.805V18.161z M2.571,14.1h2.823v-2.848H2.571V14.1z M2.571,18.161h2.823v-2.847H2.571V18.161z"/>
</svg>
