<?xml version="1.0" encoding="utf-8"?>
<!-- Generator: Adobe Illustrator 16.0.0, SVG Export Plug-In . SVG Version: 6.00 Build 0)  -->
<!DOCTYPE svg PUBLIC "-//W3C//DTD SVG 1.1//EN" "http://www.w3.org/Graphics/SVG/1.1/DTD/svg11.dtd">
<svg version="1.1" id="Layer_1" xmlns="http://www.w3.org/2000/svg" xmlns:xlink="http://www.w3.org/1999/xlink" x="0px" y="0px"
	 width="150px" height="130px" viewBox="0 0 150 130" enable-background="new 0 0 150 130" xml:space="preserve">
<g>
	<g>
		<defs>
			<path id="SVGID_1_" d="M143.418,106.211c1.254,0,2.193,0.943,2.037,2.203c0,4.876-3.918,8.809-8.779,8.809H13.306
				c-4.859,0-8.778-3.933-8.778-8.809c0-1.26,0.941-2.203,2.195-2.203h55.18c0,2.359,1.881,4.405,4.389,4.405H83.85
				c2.352,0,4.389-1.89,4.389-4.405H143.418z M131.034,12.777c5.642,0,10.188,4.562,10.032,10.067v76.289
				c0,1.258-0.941,2.201-2.195,2.201H88.236h-26.49H11.111c-1.254,0-2.195-0.943-2.195-2.201V23.002
				c0-5.663,4.546-10.225,10.189-10.225H131.034z M132.443,23.788v66.379c0,1.258-0.94,2.203-2.193,2.203H19.89
				c-1.254,0-2.194-0.945-2.194-2.203V23.788c0-1.259,0.94-2.202,2.194-2.202h110.204C131.348,21.586,132.443,22.529,132.443,23.788
				"/>
		</defs>
		<clipPath id="SVGID_2_">
			<use xlink:href="#SVGID_1_"  overflow="visible"/>
		</clipPath>
		<g clip-path="url(#SVGID_2_)">
			<g>
				<defs>
					<rect id="SVGID_3_" x="-964.375" y="-361.121" width="1359.861" height="1235.774"/>
				</defs>
				<clipPath id="SVGID_4_">
					<use xlink:href="#SVGID_3_"  overflow="visible"/>
				</clipPath>
				<rect x="0.278" y="8.527" clip-path="url(#SVGID_4_)" fill="#A2B5C7" width="149.445" height="112.944"/>
			</g>
		</g>
		<g clip-path="url(#SVGID_2_)">
			<g>
				<defs>
					<path id="SVGID_5_" d="M62.973,74.404h16.099v2.055H62.973V74.404z M62.973,69.032h18.941v2.054H62.973V69.032z M62.973,63.659
						h24.193v2.055H62.973V63.659z M71.942,56.664v-6.039h6.309v6.039h6.386V45.052l-8.808-6.643l-9.614,6.489v11.766H71.942z
						 M72.963,58.718h-8.788V46.274l-2.815,1.9l-1.136-1.705l15.67-10.576L89.959,46.5l-1.223,1.645l-2.061-1.555v12.128h-9.311
						v-1.026H76.21v-5.013h-2.228v6.039H72.963L72.963,58.718z"/>
				</defs>
				<clipPath id="SVGID_6_">
					<use xlink:href="#SVGID_5_"  overflow="visible"/>
				</clipPath>
				<g clip-path="url(#SVGID_6_)">
					<g>
						<defs>
							<rect id="SVGID_7_" x="-964.375" y="-361.121" width="1359.861" height="1235.774"/>
						</defs>
						<clipPath id="SVGID_8_">
							<use xlink:href="#SVGID_7_"  overflow="visible"/>
						</clipPath>
						<rect x="55.974" y="31.644" clip-path="url(#SVGID_8_)" fill="#D9B328" width="38.235" height="49.064"/>
					</g>
				</g>
				<g clip-path="url(#SVGID_6_)">
					<g>
						<defs>
							<path id="SVGID_9_" d="M56.712,79.629h29.761l6.955-6.463V34.442H56.712V79.629z M87.271,81.684h-32.6V32.389h40.795v41.677
								L87.271,81.684z"/>
						</defs>
						<clipPath id="SVGID_10_">
							<use xlink:href="#SVGID_9_"  overflow="visible"/>
						</clipPath>
						<g clip-path="url(#SVGID_10_)">
							<g>
								<defs>
									<rect id="SVGID_11_" x="-964.375" y="-361.121" width="1359.861" height="1235.774"/>
								</defs>
								<clipPath id="SVGID_12_">
									<use xlink:href="#SVGID_11_"  overflow="visible"/>
								</clipPath>
								<rect x="50.422" y="28.139" clip-path="url(#SVGID_12_)" fill="#D9B328" width="49.294" height="57.794"/>
							</g>
						</g>
						<g clip-path="url(#SVGID_10_)">
							<g>
								<defs>
									<polygon id="SVGID_13_" points="87.463,80.656 85.423,80.656 85.423,72.59 93.5,72.59 93.5,74.645 87.463,74.645 									
										"/>
								</defs>
								<clipPath id="SVGID_14_">
									<use xlink:href="#SVGID_13_"  overflow="visible"/>
								</clipPath>
								<g clip-path="url(#SVGID_14_)">
									<g>
										<defs>
											<rect id="SVGID_15_" x="-964.375" y="-361.121" width="1359.861" height="1235.774"/>
										</defs>
										<clipPath id="SVGID_16_">
											<use xlink:href="#SVGID_15_"  overflow="visible"/>
										</clipPath>
										<rect x="81.174" y="68.34" clip-path="url(#SVGID_16_)" fill="#D9B328" width="16.576" height="16.566"/>
									</g>
								</g>
							</g>
						</g>
					</g>
				</g>
			</g>
		</g>
	</g>
</g>
<path fill="#FFFFFF" d="M132.527,23.705v66.379c0,1.258-0.941,2.203-2.193,2.203H19.974c-1.254,0-2.193-0.945-2.193-2.203V23.705
	c0-1.259,0.939-2.202,2.193-2.202h110.204C131.432,21.503,132.527,22.446,132.527,23.705"/>
<rect x="-764.041" y="-336.788" fill="none" width="1359.861" height="1235.774"/>
<g>
	<defs>
		<path id="SVGID_17_" d="M62.932,72.728h16.031v2.045H62.932V72.728z M62.932,67.379h18.86v2.045h-18.86V67.379z M62.932,62.027
			h24.091v2.045H62.932V62.027z M71.863,55.063v-6.014h6.282v6.014h6.358V43.5l-8.771-6.614l-9.573,6.461v11.715H71.863z
			 M72.88,57.108h-8.751v-12.39l-2.803,1.892l-1.13-1.699l15.603-10.53l14.007,10.562l-1.219,1.637l-2.052-1.547v12.076h-9.27
			v-1.023h-1.151v-4.99h-2.219v6.014H72.88z"/>
	</defs>
	<clipPath id="SVGID_18_">
		<use xlink:href="#SVGID_17_"  overflow="visible"/>
	</clipPath>
	<g clip-path="url(#SVGID_18_)">
		<defs>
			<rect id="SVGID_19_" x="-960.016" y="-360.934" width="1354.038" height="1230.482"/>
		</defs>
		<clipPath id="SVGID_20_">
			<use xlink:href="#SVGID_19_"  overflow="visible"/>
		</clipPath>
		<rect x="55.963" y="30.149" clip-path="url(#SVGID_20_)" fill="#D9B328" width="38.072" height="48.854"/>
	</g>
</g>
<g>
	<defs>
		<path id="SVGID_21_" d="M56.72,77.93h29.634l6.925-6.436V32.936H56.72V77.93z M87.148,79.975H54.689V30.891h40.621V72.39
			L87.148,79.975z"/>
	</defs>
	<clipPath id="SVGID_22_">
		<use xlink:href="#SVGID_21_"  overflow="visible"/>
	</clipPath>
	<g clip-path="url(#SVGID_22_)">
		<defs>
			<rect id="SVGID_23_" x="-959.993" y="-360.934" width="1354.038" height="1230.482"/>
		</defs>
		<clipPath id="SVGID_24_">
			<use xlink:href="#SVGID_23_"  overflow="visible"/>
		</clipPath>
		<rect x="50.458" y="26.66" clip-path="url(#SVGID_24_)" fill="#D9B328" width="49.084" height="57.546"/>
	</g>
</g>
<g>
	<defs>
		<polygon id="SVGID_25_" points="73.011,78.953 70.979,78.953 70.979,70.919 79.021,70.919 79.021,72.966 73.011,72.966 		"/>
	</defs>
	<clipPath id="SVGID_26_">
		<use xlink:href="#SVGID_25_"  overflow="visible"/>
	</clipPath>
	<g clip-path="url(#SVGID_26_)">
		<defs>
			<rect id="SVGID_27_" x="-974.323" y="-360.934" width="1354.038" height="1230.482"/>
		</defs>
		<clipPath id="SVGID_28_">
			<use xlink:href="#SVGID_27_"  overflow="visible"/>
		</clipPath>
		<rect x="66.747" y="66.688" clip-path="url(#SVGID_28_)" fill="#D9B328" width="16.507" height="16.497"/>
	</g>
</g>
</svg>
