<?xml version="1.0" encoding="utf-8"?>
<!-- Generator: Adobe Illustrator 16.0.0, SVG Export Plug-In . SVG Version: 6.00 Build 0)  -->
<!DOCTYPE svg PUBLIC "-//W3C//DTD SVG 1.1//EN" "http://www.w3.org/Graphics/SVG/1.1/DTD/svg11.dtd">
<svg version="1.1" id="Layer_1" xmlns="http://www.w3.org/2000/svg" xmlns:xlink="http://www.w3.org/1999/xlink" x="0px" y="0px"
	 width="18px" height="15.375px" viewBox="0 0 18 15.375" enable-background="new 0 0 18 15.375" xml:space="preserve">
<path fill="none" d="M9,1.569c-3.374,0-6.119,2.745-6.119,6.119c0,3.374,2.745,6.118,6.119,6.118c3.374,0,6.118-2.744,6.118-6.118
	C15.118,4.314,12.374,1.569,9,1.569z M8.507,2.556h0.986v0.987H8.507V2.556z M4.855,8.181H3.869V7.194h0.987V8.181z M9.493,12.819
	H8.507v-0.987h0.986V12.819z M10.851,9.502l-5.443,1.814l1.814-5.443l5.443-1.813L10.851,9.502z M13.145,8.181V7.194h0.987v0.986
	H13.145z"/>
<circle fill="none" cx="9.036" cy="7.687" r="0.986"/>
<rect x="8.507" y="2.556" fill="#25719B" width="0.986" height="0.987"/>
<rect x="8.507" y="11.832" fill="#25719B" width="0.986" height="0.987"/>
<rect x="13.145" y="7.194" fill="#25719B" width="0.987" height="0.986"/>
<rect x="3.869" y="7.194" fill="#25719B" width="0.987" height="0.986"/>
<path fill="#25719B" d="M9,0.188c-4.143,0-7.5,3.358-7.5,7.5s3.357,7.5,7.5,7.5c4.142,0,7.5-3.358,7.5-7.5S13.142,0.188,9,0.188z
	 M9,13.806c-3.374,0-6.119-2.744-6.119-6.118c0-3.374,2.745-6.119,6.119-6.119c3.374,0,6.118,2.745,6.118,6.119
	C15.118,11.062,12.374,13.806,9,13.806z"/>
<path fill="#25719B" d="M5.407,11.316l5.443-1.814l1.814-5.442L7.222,5.873L5.407,11.316z M8.339,6.99
	c0.385-0.386,1.01-0.386,1.395,0c0.386,0.386,0.386,1.01,0,1.395c-0.385,0.386-1.01,0.386-1.395,0
	C7.953,7.999,7.953,7.375,8.339,6.99z"/>
</svg>
