<?xml version="1.0" encoding="utf-8"?>
<!-- Generator: Adobe Illustrator 16.0.0, SVG Export Plug-In . SVG Version: 6.00 Build 0)  -->
<!DOCTYPE svg PUBLIC "-//W3C//DTD SVG 1.1//EN" "http://www.w3.org/Graphics/SVG/1.1/DTD/svg11.dtd">
<svg version="1.1" id="Layer_1" xmlns="http://www.w3.org/2000/svg" xmlns:xlink="http://www.w3.org/1999/xlink" x="0px" y="0px"
	 width="30px" height="30px" viewBox="0 0 30 30" enable-background="new 0 0 30 30" xml:space="preserve">
<g transform="translate(0,-952.36218)">
	<path fill="#A2B5C7" d="M21.902,960.558c-0.154,0.016-0.298,0.087-0.406,0.202l-2.346,2.457c-0.242,0.261-0.231,0.67,0.029,0.915
		c0.261,0.242,0.666,0.233,0.913-0.025l1.223-1.285v10.7c0.004,0.355,0.301,0.641,0.659,0.636c0.348-0.006,0.628-0.287,0.635-0.636
		v-10.7l1.225,1.285c0.246,0.258,0.657,0.267,0.917,0.021c0.254-0.245,0.266-0.652,0.025-0.911l-2.34-2.457
		c-0.12-0.128-0.286-0.202-0.462-0.202C21.948,960.556,21.926,960.556,21.902,960.558z"/>
	<path fill="#A2B5C7" d="M8.393,960.547c-0.33,0.043-0.575,0.326-0.567,0.658v10.699l-1.225-1.285
		c-0.12-0.127-0.288-0.2-0.463-0.203c-0.359-0.001-0.65,0.285-0.653,0.643c0,0.168,0.063,0.329,0.178,0.451l2.335,2.458
		c0.244,0.259,0.656,0.27,0.916,0.025c0.008-0.008,0.017-0.019,0.025-0.025l2.346-2.458c0.245-0.261,0.234-0.67-0.026-0.915
		c-0.258-0.246-0.667-0.235-0.915,0.024l0,0l-1.223,1.285v-10.699c0.006-0.358-0.277-0.651-0.637-0.658c-0.006,0-0.014,0-0.02,0
		C8.439,960.547,8.415,960.547,8.393,960.547z"/>
	<path fill="#A2B5C7" d="M1.343,953.064c-0.34,0-0.646,0.308-0.646,0.647v27.305c0,0.341,0.307,0.646,0.646,0.646
		c9.122,0.013,18.199,0,27.314,0c0.339,0,0.646-0.305,0.646-0.646v-27.305c0-0.339-0.308-0.647-0.646-0.647
		C19.54,953.049,10.46,953.064,1.343,953.064z M1.99,954.359h12.369v26.008H1.99V954.359z M15.652,954.359H28.01v26.008H15.652
		V954.359z"/>
</g>
</svg>
