<?xml version="1.0" encoding="utf-8"?>
<!-- Generator: Adobe Illustrator 16.0.0, SVG Export Plug-In . SVG Version: 6.00 Build 0)  -->
<!DOCTYPE svg PUBLIC "-//W3C//DTD SVG 1.1//EN" "http://www.w3.org/Graphics/SVG/1.1/DTD/svg11.dtd">
<svg version="1.1" id="Layer_1" xmlns="http://www.w3.org/2000/svg" xmlns:xlink="http://www.w3.org/1999/xlink" x="0px" y="0px"
	 width="50px" height="50px" viewBox="0 0 50 50" enable-background="new 0 0 50 50" xml:space="preserve">
<rect x="-640.271" y="-323.666" fill="none" width="1596.69" height="1084.753"/>
<g>
	<g>
		<defs>
			<path id="SVGID_1_" d="M42.992,1.188H7.01c-3.229,0-5.822,2.435-5.822,5.451v27.358c0,3.017,2.594,5.45,5.822,5.45h3.81v8.097
				c0,0.477,0.317,0.952,0.793,1.164c0.212,0.104,0.369,0.104,0.582,0.104c0.318,0,0.636-0.104,0.899-0.263l12.014-9.103h17.885
				c3.227,0,5.82-2.434,5.82-5.45V6.639C48.813,3.622,46.219,1.188,42.992,1.188z M46.113,33.944c0,1.587-1.376,2.857-3.07,2.857
				H24.577c-0.317,0-0.636,0.104-0.899,0.264L13.57,44.738v-6.669c0-0.685-0.635-1.268-1.376-1.268H7.01
				c-1.695,0-3.069-1.271-3.069-2.857V6.745c0-1.589,1.374-2.857,3.069-2.857h36.088c1.693,0,3.069,1.269,3.069,2.857v27.199H46.113
				z"/>
		</defs>
		<clipPath id="SVGID_2_">
			<use xlink:href="#SVGID_1_"  overflow="visible"/>
		</clipPath>
		<g clip-path="url(#SVGID_2_)">
			<defs>
				<rect id="SVGID_3_" x="-1169.028" y="-374.143" width="1814.287" height="1232.58"/>
			</defs>
			<clipPath id="SVGID_4_">
				<use xlink:href="#SVGID_3_"  overflow="visible"/>
			</clipPath>
			<rect x="-4.482" y="-4.482" clip-path="url(#SVGID_4_)" fill="#A2B5C7" width="58.965" height="58.965"/>
		</g>
	</g>
	<g>
		<defs>
			<polygon id="SVGID_5_" points="12.429,20.546 17.457,20.546 17.457,18.784 12.429,18.784 12.429,16.608 17.933,16.608 
				17.933,14.795 10.259,14.795 10.259,25 18.196,25 18.196,23.186 12.429,23.186 			"/>
		</defs>
		<clipPath id="SVGID_6_">
			<use xlink:href="#SVGID_5_"  overflow="visible"/>
		</clipPath>
		<g clip-path="url(#SVGID_6_)">
			<defs>
				<rect id="SVGID_7_" x="-1169.028" y="-374.143" width="1814.287" height="1232.58"/>
			</defs>
			<clipPath id="SVGID_8_">
				<use xlink:href="#SVGID_7_"  overflow="visible"/>
			</clipPath>
			<rect x="4.589" y="9.126" clip-path="url(#SVGID_8_)" fill="#A2B5C7" width="19.276" height="21.544"/>
		</g>
	</g>
	<g>
		<defs>
			<polygon id="SVGID_9_" points="26.515,21.894 22.597,14.795 20.464,14.795 20.464,25 22.398,25 22.398,17.75 26.368,25 
				28.401,25 28.401,14.795 26.515,14.795 			"/>
		</defs>
		<clipPath id="SVGID_10_">
			<use xlink:href="#SVGID_9_"  overflow="visible"/>
		</clipPath>
		<g clip-path="url(#SVGID_10_)">
			<defs>
				<rect id="SVGID_11_" x="-1169.028" y="-374.143" width="1814.287" height="1232.58"/>
			</defs>
			<clipPath id="SVGID_12_">
				<use xlink:href="#SVGID_11_"  overflow="visible"/>
			</clipPath>
			<rect x="14.794" y="9.126" clip-path="url(#SVGID_12_)" fill="#A2B5C7" width="19.277" height="21.544"/>
		</g>
	</g>
	<g>
		<defs>
			<path id="SVGID_13_" d="M34.52,21.882h2.293c-0.101,0.709-0.35,1.255-0.8,1.69c-0.446,0.438-0.995,0.654-1.691,0.654
				c-0.698,0-1.348-0.273-1.895-0.818c-0.548-0.545-0.848-1.471-0.848-2.78c0-1.309,0.25-2.289,0.748-2.944
				c0.497-0.654,1.147-0.981,1.942-0.981c0.4,0,0.8,0.056,1.147,0.22c0.596,0.271,0.998,0.817,1.147,1.525h2.043
				c-0.1-1.035-0.549-1.907-1.297-2.616c-0.746-0.71-1.744-1.036-2.989-1.036c-1.446,0-2.591,0.544-3.488,1.58
				c-0.897,1.037-1.298,2.455-1.298,4.198c0,1.746,0.45,3.054,1.298,4.09c0.847,0.981,1.894,1.471,3.188,1.471
				c0.799,0,1.446-0.162,1.992-0.543c0.301-0.219,0.649-0.545,1.048-1.091l0.15,1.362h1.345v-5.778h-4.084v1.798H34.52z"/>
		</defs>
		<clipPath id="SVGID_14_">
			<use xlink:href="#SVGID_13_"  overflow="visible"/>
		</clipPath>
		<g clip-path="url(#SVGID_14_)">
			<defs>
				<rect id="SVGID_15_" x="-1169.028" y="-374.143" width="1814.287" height="1232.58"/>
			</defs>
			<clipPath id="SVGID_16_">
				<use xlink:href="#SVGID_15_"  overflow="visible"/>
			</clipPath>
			<rect x="23.865" y="9.126" clip-path="url(#SVGID_16_)" fill="#A2B5C7" width="20.411" height="22.678"/>
		</g>
	</g>
</g>
</svg>
