<?xml version="1.0" encoding="utf-8"?>
<!-- Generator: Adobe Illustrator 16.0.0, SVG Export Plug-In . SVG Version: 6.00 Build 0)  -->
<!DOCTYPE svg PUBLIC "-//W3C//DTD SVG 1.1//EN" "http://www.w3.org/Graphics/SVG/1.1/DTD/svg11.dtd">
<svg version="1.1" id="Layer_1" xmlns="http://www.w3.org/2000/svg" xmlns:xlink="http://www.w3.org/1999/xlink" x="0px" y="0px"
	 width="30px" height="30px" viewBox="0 0 30 30" enable-background="new 0 0 30 30" xml:space="preserve">
<g>
	<path fill="none" d="M16.093,9.366h-2.321v4.666h2.321c1.288,0,2.334-1.044,2.334-2.333C18.427,10.411,17.381,9.366,16.093,9.366z"
		/>
	<path fill="none" d="M15.005,2.772C8.251,2.769,2.771,8.245,2.77,14.999c-0.003,6.757,5.473,12.234,12.228,12.235
		c6.756,0.004,12.236-5.472,12.236-12.227c0-0.002,0-0.003,0-0.004C27.226,8.252,21.757,2.78,15.005,2.772z M16.093,15.97h-2.321
		V21.6c0,0.534-0.435,0.968-0.967,0.968c-0.536,0-0.966-0.434-0.966-0.968V7.437h4.254c2.357,0,4.269,1.911,4.269,4.267
		C20.361,14.06,18.45,15.97,16.093,15.97z"/>
	<path fill="#A2B5C7" d="M14.997,1.146C7.348,1.15,1.146,7.352,1.146,15.003c0.005,7.652,6.209,13.853,13.858,13.85
		c7.646-0.011,13.84-6.204,13.849-13.85c0-0.002,0-0.006,0-0.007C28.854,7.345,22.65,1.144,14.997,1.146z M27.233,15.007
		c0,6.755-5.48,12.231-12.236,12.227C8.242,27.233,2.767,21.756,2.77,14.999C2.771,8.245,8.251,2.769,15.005,2.772
		c6.752,0.008,12.221,5.48,12.229,12.231C27.233,15.004,27.233,15.005,27.233,15.007z"/>
	<path fill="#A2B5C7" d="M16.093,7.437h-4.254V21.6c0,0.534,0.43,0.968,0.966,0.968c0.532,0,0.967-0.434,0.967-0.968V15.97h2.321
		c2.357,0,4.269-1.91,4.269-4.267C20.361,9.347,18.45,7.437,16.093,7.437z M16.093,14.032h-2.321V9.366h2.321
		c1.288,0,2.334,1.044,2.334,2.333C18.427,12.988,17.381,14.032,16.093,14.032z"/>
</g>
</svg>
