<?xml version="1.0" encoding="utf-8"?>
<!-- Generator: Adobe Illustrator 16.0.0, SVG Export Plug-In . SVG Version: 6.00 Build 0)  -->
<!DOCTYPE svg PUBLIC "-//W3C//DTD SVG 1.1//EN" "http://www.w3.org/Graphics/SVG/1.1/DTD/svg11.dtd">
<svg version="1.1" id="Layer_1" xmlns="http://www.w3.org/2000/svg" xmlns:xlink="http://www.w3.org/1999/xlink" x="0px" y="0px"
	 width="12.667px" height="17px" viewBox="0 0 12.667 17" enable-background="new 0 0 12.667 17" xml:space="preserve">
<g>
	<path fill="none" d="M9.315,12.023c-0.703,0-1.414,0.509-1.587,1.627h3.175C10.711,12.381,9.849,12.023,9.315,12.023z"/>
	<path fill="none" d="M9.315,10.94c0.704,0,1.414-0.509,1.587-1.626H7.727C7.918,10.581,8.781,10.94,9.315,10.94z"/>
	<path fill="#2E8DC2" d="M11.992,9.314h0.033c0.3,0,0.542-0.244,0.542-0.543c0-0.3-0.242-0.542-0.542-0.542h-5.42
		c-0.301,0-0.542,0.242-0.542,0.542c0,0.299,0.241,0.543,0.542,0.543h0.032c0.115,1.014,0.547,1.728,1.111,2.166
		c-0.564,0.439-0.996,1.155-1.111,2.17H6.605c-0.301,0-0.542,0.242-0.542,0.54c0,0.301,0.241,0.543,0.542,0.543h5.42
		c0.3,0,0.542-0.242,0.542-0.543c0-0.298-0.242-0.54-0.542-0.54h-0.033c-0.114-1.015-0.546-1.73-1.11-2.17
		C11.446,11.042,11.877,10.328,11.992,9.314z M10.903,13.65H7.728c0.173-1.118,0.884-1.627,1.587-1.627
		C9.849,12.023,10.711,12.381,10.903,13.65z M9.315,10.94c-0.534,0-1.396-0.359-1.588-1.626h3.175
		C10.729,10.432,10.019,10.94,9.315,10.94z"/>
	<path fill="#2E8DC2" d="M12.352,2.376c-0.137-0.103-0.313-0.135-0.475-0.088L8.231,3.33L4.585,2.288
		c-0.009-0.002-0.017,0-0.025-0.001c-0.041-0.01-0.081-0.006-0.124-0.006c-0.041,0-0.081-0.004-0.122,0.006
		C4.306,2.289,4.297,2.286,4.289,2.288L0.495,3.372C0.261,3.438,0.101,3.651,0.101,3.893v9.214c0,0.171,0.08,0.33,0.216,0.433
		c0.095,0.071,0.21,0.11,0.326,0.11c0.049,0,0.1-0.007,0.148-0.022l3.794-1.083c0.013-0.005,0.021-0.013,0.034-0.018
		c0.024-0.006,0.045-0.02,0.067-0.03c0.035-0.02,0.069-0.041,0.1-0.067c0.019-0.017,0.036-0.032,0.052-0.049
		c0.028-0.033,0.051-0.069,0.071-0.106c0.011-0.02,0.022-0.037,0.029-0.057c0.024-0.063,0.04-0.127,0.04-0.194V3.527l2.71,0.775
		v2.301c0,0.299,0.243,0.542,0.542,0.542c0.301,0,0.541-0.243,0.541-0.542V4.302l2.71-0.775v3.076c0,0.299,0.244,0.542,0.542,0.542
		c0.301,0,0.543-0.243,0.543-0.542V2.809C12.567,2.639,12.488,2.479,12.352,2.376z"/>
</g>
</svg>
