<?xml version="1.0" encoding="utf-8"?>
<!-- Generator: Adobe Illustrator 16.0.0, SVG Export Plug-In . SVG Version: 6.00 Build 0)  -->
<!DOCTYPE svg PUBLIC "-//W3C//DTD SVG 1.1//EN" "http://www.w3.org/Graphics/SVG/1.1/DTD/svg11.dtd">
<svg version="1.1" id="Layer_1" xmlns="http://www.w3.org/2000/svg" xmlns:xlink="http://www.w3.org/1999/xlink" x="0px" y="0px"
	 width="30px" height="30px" viewBox="0 0 30 30" enable-background="new 0 0 30 30" xml:space="preserve">
<path fill="#A2B5C7" d="M27.112,13.032v-2.625c0-1.075-0.875-1.949-1.95-1.949h-0.047c-0.295-0.95-1.187-1.618-2.196-1.618h-0.091
	c-1.269,0-2.3,1.032-2.3,2.299v3.696H9.472V9.14c0-1.269-1.032-2.3-2.3-2.3h-0.09c-1.01,0-1.901,0.668-2.197,1.618H4.837
	c-1.075,0-1.949,0.875-1.949,1.949v2.625C2.126,13.379,1.626,14.147,1.626,15s0.5,1.621,1.263,1.968v2.625
	c0,1.075,0.874,1.95,1.949,1.95h0.047c0.296,0.949,1.187,1.617,2.197,1.617h0.09c1.268,0,2.3-1.031,2.3-2.3v-3.696h11.057v3.696
	c0,1.269,1.031,2.3,2.3,2.3h0.091c1.01,0,1.901-0.669,2.196-1.618h0.047c1.075,0,1.95-0.874,1.95-1.949v-2.625
	c0.762-0.347,1.262-1.115,1.262-1.968S27.874,13.379,27.112,13.032z M4.78,20.186c-0.301-0.029-0.538-0.284-0.538-0.593v-9.186
	c0-0.309,0.236-0.563,0.538-0.592V20.186z M8.118,20.86c0,0.521-0.424,0.945-0.946,0.945h-0.09c-0.521,0-0.946-0.424-0.946-0.945
	L6.135,10.552l0.001,0.001V9.14c0-0.521,0.424-0.945,0.946-0.945h0.09c0.521,0,0.946,0.424,0.946,0.945V20.86z M20.528,15.811H9.472
	v-1.621h11.057V15.811z M23.864,20.86c0,0.521-0.424,0.945-0.945,0.945h-0.091c-0.521,0-0.945-0.424-0.945-0.945V9.14
	c0-0.521,0.424-0.945,0.945-0.945h0.091c0.521,0,0.945,0.424,0.945,0.945V20.86z M25.758,19.593c0,0.309-0.236,0.563-0.538,0.593
	V9.815c0.302,0.029,0.538,0.283,0.538,0.592V19.593z"/>
</svg>
