<?xml version="1.0" encoding="utf-8"?>
<!-- Generator: Adobe Illustrator 16.0.0, SVG Export Plug-In . SVG Version: 6.00 Build 0)  -->
<!DOCTYPE svg PUBLIC "-//W3C//DTD SVG 1.1//EN" "http://www.w3.org/Graphics/SVG/1.1/DTD/svg11.dtd">
<svg version="1.1" id="Layer_1" xmlns="http://www.w3.org/2000/svg" xmlns:xlink="http://www.w3.org/1999/xlink" x="0px" y="0px"
	 width="13.984px" height="13.985px" viewBox="0 0 13.984 13.985" enable-background="new 0 0 13.984 13.985" xml:space="preserve">
<g>
	<defs>
		<path id="SVGID_1_" d="M11.13,0.249c-1.478-0.544-3.033-0.165-4.138,0.84c-1.104-1.005-2.66-1.384-4.138-0.84
			c-2.209,0.807-3.375,3.36-2.629,5.699c0.031,0.099,0.078,0.197,0.109,0.296c1.167,3.311,6.658,7.741,6.658,7.741
			s5.491-4.496,6.658-7.741c0.047-0.099,0.078-0.197,0.109-0.296C14.505,3.609,13.339,1.056,11.13,0.249"/>
	</defs>
	<clipPath id="SVGID_2_">
		<use xlink:href="#SVGID_1_"  overflow="visible"/>
	</clipPath>
	<g clip-path="url(#SVGID_2_)">
		<defs>
			<rect id="SVGID_3_" x="-577.326" y="-325.007" width="1600" height="2572"/>
		</defs>
		<clipPath id="SVGID_4_">
			<use xlink:href="#SVGID_3_"  overflow="visible"/>
		</clipPath>
		<rect x="-5" y="-5" clip-path="url(#SVGID_4_)" fill="#2E8DC2" width="23.984" height="23.985"/>
	</g>
</g>
</svg>
