<?xml version="1.0" encoding="utf-8"?>
<!-- Generator: Adobe Illustrator 16.0.0, SVG Export Plug-In . SVG Version: 6.00 Build 0)  -->
<!DOCTYPE svg PUBLIC "-//W3C//DTD SVG 1.1//EN" "http://www.w3.org/Graphics/SVG/1.1/DTD/svg11.dtd">
<svg version="1.1" id="Layer_1" xmlns="http://www.w3.org/2000/svg" xmlns:xlink="http://www.w3.org/1999/xlink" x="0px" y="0px"
	 width="30px" height="30px" viewBox="0 0 30 30" enable-background="new 0 0 30 30" xml:space="preserve">
<path fill="#A2B5C7" d="M3.519,5.7c-1.3,0-2.296-0.995-2.296-2.296c0-1.302,0.996-2.297,2.296-2.297
	c1.303,0,2.297,0.995,2.297,2.297C5.815,4.705,4.821,5.7,3.519,5.7z M3.519,2.638c-0.459,0-0.765,0.307-0.765,0.767
	c0,0.459,0.306,0.765,0.765,0.765c0.46,0,0.767-0.306,0.767-0.765C4.285,2.944,3.901,2.638,3.519,2.638z"/>
<path fill="#A2B5C7" d="M11.557,7.23c-1.302,0-2.297-0.994-2.297-2.296c0-1.301,0.995-2.297,2.297-2.297
	c1.301,0,2.296,0.996,2.296,2.297C13.853,6.236,12.781,7.23,11.557,7.23z M11.557,4.169c-0.46,0-0.767,0.307-0.767,0.766
	c0,0.46,0.307,0.766,0.767,0.766c0.459,0,0.766-0.306,0.766-0.766C12.322,4.476,11.938,4.169,11.557,4.169z"/>
<path fill="#A2B5C7" d="M6.351,12.818c-1.454,0-2.602-1.148-2.602-2.602c0-1.455,1.147-2.604,2.602-2.604
	c1.455,0,2.604,1.148,2.604,2.604C8.954,11.67,7.806,12.818,6.351,12.818z M6.351,9.144c-0.611,0-1.07,0.459-1.07,1.073
	c0,0.612,0.459,1.071,1.07,1.071c0.613,0,1.071-0.459,1.071-1.071C7.422,9.603,6.964,9.144,6.351,9.144z"/>
<path fill="#A2B5C7" d="M17.066,12.206c-1.3,0-2.295-0.995-2.295-2.296c0-1.302,0.995-2.297,2.295-2.297
	c1.302,0,2.297,0.995,2.297,2.297C19.363,11.211,18.368,12.206,17.066,12.206z M17.066,9.144c-0.459,0-0.765,0.307-0.765,0.767
	c0,0.459,0.306,0.766,0.765,0.766s0.766-0.307,0.766-0.766C17.832,9.45,17.449,9.144,17.066,9.144z"/>
<path fill="#A2B5C7" d="M26.48,13.431h-2.219V4.782c0-1.99-1.607-3.675-3.674-3.675s-3.676,1.606-3.676,3.675v0.382
	c0,0.459,0.384,0.766,0.767,0.766c0.46,0,0.766-0.307,0.766-0.766V4.782c0-1.148,0.995-2.145,2.144-2.145
	c1.149,0,2.143,0.919,2.143,2.145v8.648H3.519c-1.3,0-2.296,1.072-2.296,2.298v1.912c0,4.133,2.756,7.655,6.507,8.727v1.684
	c0,0.46,0.382,0.765,0.765,0.765s0.766-0.305,0.766-0.765v-1.378c0.383,0.153,0.766,0.153,1.147,0.153h9.186
	c0.384,0,0.765,0,1.148-0.076v1.376c0,0.46,0.383,0.767,0.766,0.767s0.765-0.307,0.765-0.767v-1.683
	c3.75-1.147,6.506-4.67,6.506-8.803v-1.912C28.777,14.426,27.782,13.431,26.48,13.431z M14.465,14.962h4.362v4.899
	c0,0.458-0.383,0.765-0.766,0.765h-2.908c-0.382,0-0.766-0.307-0.766-0.765v-4.899H14.465z M2.754,15.729
	c0-0.459,0.383-0.767,0.765-0.767h9.415v1.914H2.754V15.729z M19.593,25.296h-9.186c-3.979,0-7.194-2.985-7.577-6.889h10.18v1.454
	c0,1.301,0.996,2.296,2.297,2.296h2.755c1.302,0,2.296-0.995,2.296-2.296v-1.454h6.889C26.865,22.311,23.573,25.296,19.593,25.296z
	 M27.246,16.876h-6.889v-1.914h6.123c0.385,0,0.766,0.308,0.766,0.767V16.876z"/>
</svg>
