<?xml version="1.0" encoding="utf-8"?>
<!-- Generator: Adobe Illustrator 16.0.0, SVG Export Plug-In . SVG Version: 6.00 Build 0)  -->
<!DOCTYPE svg PUBLIC "-//W3C//DTD SVG 1.1//EN" "http://www.w3.org/Graphics/SVG/1.1/DTD/svg11.dtd">
<svg version="1.1" id="Layer_1" xmlns="http://www.w3.org/2000/svg" xmlns:xlink="http://www.w3.org/1999/xlink" x="0px" y="0px"
	 width="30px" height="30px" viewBox="0 0 30 30" enable-background="new 0 0 30 30" xml:space="preserve">
<path fill="#A2B5C7" d="M28.226,1.501H1.774c-0.631,0-1.144,0.513-1.144,1.144v5.911c0,0.633,0.513,1.146,1.144,1.146h1.053v17.65
	c0,0.633,0.513,1.147,1.144,1.147h22.052c0.633,0,1.148-0.515,1.148-1.147V9.702h1.055c0.628,0,1.145-0.513,1.145-1.146V2.645
	C29.37,2.014,28.854,1.501,28.226,1.501z M16.979,26.197c0.314-0.211,0.395-0.647,0.181-0.961c-0.201-0.297-0.654-0.39-0.961-0.174
	l-1.201,0.815l-1.197-0.815c-0.305-0.22-0.753-0.133-0.967,0.174c-0.212,0.313-0.134,0.744,0.179,0.961l0.759,0.52l-0.582,0.398
	h-0.703c-0.321-0.093-1.555-0.563-1.555-2.349c0-1.458,0.738-2.895,1.299-3.774c0.19,0.342,0.316,0.645,0.363,0.854
	c0.009,0.201,0.033,0.323,0.035,0.334c0.054,0.335,0.343,0.578,0.68,0.578l0.059-0.002c0.361-0.034,0.633-0.329,0.633-0.689
	c0-0.122-0.009-0.246-0.03-0.341c-0.024-0.515,0.04-1.811,1.024-3.102c0.999,1.296,1.052,2.579,1.029,3.063
	c-0.021,0.128-0.033,0.257-0.033,0.379c0,0.358,0.279,0.659,0.625,0.686l0.076,0.006c0.328,0,0.614-0.249,0.668-0.564
	c0.005-0.024,0.026-0.141,0.033-0.308c0.05-0.234,0.178-0.55,0.366-0.894c0.563,0.88,1.303,2.316,1.303,3.774
	c0,1.81-1.308,2.274-1.562,2.349h-0.698l-0.579-0.398L16.979,26.197z M20.447,24.767c0-2.621-1.806-4.989-2.185-5.452
	c-0.136-0.152-0.334-0.242-0.537-0.242h-0.005c-0.214,0.002-0.408,0.104-0.53,0.267c-0.005,0.008-0.056,0.07-0.136,0.187
	c-0.321-0.901-0.847-1.717-1.569-2.438c-0.257-0.266-0.716-0.266-0.975,0c-0.722,0.722-1.247,1.537-1.568,2.438
	c-0.08-0.116-0.132-0.179-0.134-0.183c-0.26-0.337-0.802-0.352-1.081-0.021c-0.225,0.272-2.176,2.726-2.176,5.445
	c0,1.064,0.333,1.828,0.701,2.349H8.512v-7.562c0-3.635,2.956-6.593,6.59-6.593c3.638,0,6.597,2.958,6.597,6.593v7.562h-1.955
	C20.114,26.595,20.447,25.831,20.447,24.767z M15.102,11.579c-4.396,0-7.974,3.578-7.974,7.975v7.562H4.208V9.702h21.58v17.414
	h-2.71v-7.562C23.077,15.157,19.5,11.579,15.102,11.579z M14.999,27.266l0.123,0.086h-0.244L14.999,27.266z M27.991,2.882v5.439
	H2.011V2.882H27.991z"/>
</svg>
