<?xml version="1.0" encoding="utf-8"?>
<!-- Generator: Adobe Illustrator 16.0.0, SVG Export Plug-In . SVG Version: 6.00 Build 0)  -->
<!DOCTYPE svg PUBLIC "-//W3C//DTD SVG 1.1//EN" "http://www.w3.org/Graphics/SVG/1.1/DTD/svg11.dtd">
<svg version="1.1" id="Layer_1" xmlns="http://www.w3.org/2000/svg" xmlns:xlink="http://www.w3.org/1999/xlink" x="0px" y="0px"
	 width="50px" height="50px" viewBox="0 0 50 50" enable-background="new 0 0 50 50" xml:space="preserve">
<g>
	<defs>
		<path id="SVGID_1_" d="M7.183,29.859H20.65h0.219v-0.218v-5.322v-0.116l-0.097-0.064l-0.081-0.054
			c-0.913-0.603-1.64-1.278-2.514-2.33l-0.127-0.153l-0.153-0.185l-0.171,0.169l-0.143,0.142c-1.409,1.397-2.645,2.448-3.979,3.378
			l-0.344-0.574c1.348-0.959,2.718-2.148,3.973-3.45l0.102-0.104l0.122-0.126l-0.099-0.146l-0.081-0.12
			c-1.079-1.607-1.979-3.478-2.547-5.293l0.664-0.185c0.478,1.601,1.157,3.077,2.186,4.76l0.135,0.219l0.161,0.262l0.194-0.236
			l0.165-0.197c1.65-1.988,2.674-3.661,3.034-6.333l0.027-0.206l0.032-0.246h-0.25h-8.586v-0.922h4.575h0.219V11.99v-1.102h0.756
			v1.102v0.217h0.218h4.576v0.922h-0.688H21.95l-0.02,0.195l-0.016,0.165c-0.275,2.83-1.496,4.847-3.379,7.183l-0.093,0.114
			l-0.11,0.137l0.112,0.137l0.094,0.114c0.534,0.648,1.073,1.183,1.644,1.749l0.313,0.311l0.373,0.37v-0.524v-2.445
			c0-0.406,0.286-0.689,0.695-0.689h6.769h0.218v-0.218V7.567c0-0.642-0.481-1.145-1.094-1.145H7.183
			c-0.615,0-1.096,0.503-1.096,1.145v21.148C6.087,29.356,6.567,29.859,7.183,29.859z M19.5,14.673
			c-0.254,0.93-0.732,1.929-1.427,2.975c-0.569-1.035-1.006-2.072-1.255-2.975H19.5z M27.054,18.401H21.96
			c0.667-1.255,1.116-2.508,1.334-3.729h0.822h0.219v-0.218v-3.573v-0.218h-0.219H19.54V9.563V9.347h-0.219H16.01h-0.219v0.217
			v1.101h-4.633h-0.22v0.218v3.573v0.218h0.22h1.903c0.524,2.181,1.346,4.175,2.446,5.96c-1.27,1.235-2.575,2.29-3.986,3.223
			l-0.144,0.095l-0.173,0.115l0.105,0.177l1.687,2.828l0.114,0.191l0.189-0.115l0.158-0.098c1.46-0.9,2.878-2.021,4.331-3.426
			c0.536,0.574,1.112,1.039,1.582,1.394v3.3H7.584V7.967h19.47V18.401z"/>
	</defs>
	<clipPath id="SVGID_2_">
		<use xlink:href="#SVGID_1_"  overflow="visible"/>
	</clipPath>
	<g clip-path="url(#SVGID_2_)">
		<defs>
			<rect id="SVGID_3_" x="-640.271" y="-323.666" width="1596.69" height="1084.753"/>
		</defs>
		<clipPath id="SVGID_4_">
			<use xlink:href="#SVGID_3_"  overflow="visible"/>
		</clipPath>
		<rect x="1.098" y="1.433" clip-path="url(#SVGID_4_)" fill="#A2B5C7" width="32.442" height="33.416"/>
	</g>
</g>
<g>
	<defs>
		<path id="SVGID_5_" d="M35.338,34.236h0.287l-0.077-0.276l-0.985-3.504c-0.162-0.486-0.299-1.063-0.418-1.573l-0.012-0.051
			c-0.048-0.205-0.095-0.404-0.14-0.582l-0.151-0.66l-0.039-0.168h-0.175h-0.92h-0.171l-0.041,0.162L32.4,27.96
			c-0.025,0.124-0.059,0.255-0.092,0.393c-0.053,0.218-0.109,0.451-0.142,0.652c-0.111,0.503-0.229,1.014-0.341,1.464l-0.809,2.808
			l-0.175,0.69l-0.068,0.27h0.281H35.338z M32.75,32.695l0.438-1.488l0.45,1.488H32.75z"/>
	</defs>
	<clipPath id="SVGID_6_">
		<use xlink:href="#SVGID_5_"  overflow="visible"/>
	</clipPath>
	<g clip-path="url(#SVGID_6_)">
		<defs>
			<rect id="SVGID_7_" x="-640.271" y="-323.666" width="1596.69" height="1084.753"/>
		</defs>
		<clipPath id="SVGID_8_">
			<use xlink:href="#SVGID_7_"  overflow="visible"/>
		</clipPath>
		<rect x="25.785" y="22.431" clip-path="url(#SVGID_8_)" fill="#A2B5C7" width="14.83" height="16.794"/>
	</g>
</g>
<g>
	<defs>
		<path id="SVGID_9_" d="M30.854,39.795h0.169l0.043-0.159l0.879-3.221h2.565l0.938,3.224l0.045,0.156h0.166h4.313h0.296
			l-0.086-0.279l-4.35-14.048l-0.04-0.13l-0.047-0.152h-0.161h-4.603h-0.162l-0.047,0.155l-4.328,14.175l-0.085,0.279h0.295H30.854z
			 M34.633,26.672l3.564,11.581h-1.58l-0.935-3.167l-0.047-0.157h-0.165h-4.552h-0.167l-0.043,0.159l-0.88,3.165h-1.404
			l3.511-11.581H34.633z"/>
	</defs>
	<clipPath id="SVGID_10_">
		<use xlink:href="#SVGID_9_"  overflow="visible"/>
	</clipPath>
	<g clip-path="url(#SVGID_10_)">
		<defs>
			<rect id="SVGID_11_" x="-640.271" y="-323.666" width="1596.69" height="1084.753"/>
		</defs>
		<clipPath id="SVGID_12_">
			<use xlink:href="#SVGID_11_"  overflow="visible"/>
		</clipPath>
		<rect x="21.37" y="20.197" clip-path="url(#SVGID_12_)" fill="#A2B5C7" width="23.888" height="24.587"/>
	</g>
</g>
<g>
	<defs>
		<path id="SVGID_13_" d="M43.478,21.116H23.146c-0.613,0-1.095,0.503-1.095,1.144v20.461c0,0.649,0.566,1.086,1.095,1.086h20.332
			c0.529,0,1.095-0.437,1.095-1.086V22.26C44.572,21.65,44.06,21.116,43.478,21.116z M23.549,42.322h19.526V22.659H23.549V42.322z"
			/>
	</defs>
	<clipPath id="SVGID_14_">
		<use xlink:href="#SVGID_13_"  overflow="visible"/>
	</clipPath>
	<g clip-path="url(#SVGID_14_)">
		<defs>
			<rect id="SVGID_15_" x="0.402" y="1.161" width="49.396" height="47.401"/>
		</defs>
		<clipPath id="SVGID_16_">
			<use xlink:href="#SVGID_15_"  overflow="visible"/>
		</clipPath>
		<rect x="17.062" y="16.127" clip-path="url(#SVGID_16_)" fill="#A2B5C7" width="32.501" height="32.67"/>
	</g>
</g>
<g>
	<defs>
		<path id="SVGID_17_" d="M30.639,45.581l-0.076-0.042l-0.083,0.023l-0.104,0.026c-1.737,0.454-3.544,0.685-5.371,0.685
			c-3.694,0-7.322-0.934-10.49-2.701c-4.603-2.624-8.063-6.768-9.765-11.687L6.81,31.51l0.335-0.063L6.948,31.17l-4.411-6.234
			l-0.282-0.398l-0.11,0.474l-0.892,3.811l-0.781,3.617l-0.069,0.323l0.326-0.063l1.999-0.396
			c1.839,5.544,5.659,10.171,10.779,13.043c3.514,1.96,7.483,2.996,11.478,2.996c2.146,0,4.28-0.295,6.344-0.874
			c0.202-0.015,0.364-0.074,0.496-0.125c0.066-0.023,0.12-0.044,0.179-0.058l0.69-0.171l0.547-0.134l-0.496-0.267L30.639,45.581z"/>
	</defs>
	<clipPath id="SVGID_18_">
		<use xlink:href="#SVGID_17_"  overflow="visible"/>
	</clipPath>
	<g clip-path="url(#SVGID_18_)">
		<defs>
			<rect id="SVGID_19_" x="0.402" y="1.161" width="49.396" height="47.401"/>
		</defs>
		<clipPath id="SVGID_20_">
			<use xlink:href="#SVGID_19_"  overflow="visible"/>
		</clipPath>
		<rect x="-4.588" y="19.548" clip-path="url(#SVGID_20_)" fill="#A2B5C7" width="42.817" height="33.781"/>
	</g>
</g>
<g>
	<defs>
		<path id="SVGID_21_" d="M49.28,16.693l-1.952,0.664c-1.912-5.428-5.724-9.933-10.753-12.699C33.062,2.697,29.051,1.66,24.979,1.66
			c-2.125,0-4.242,0.281-6.292,0.836c-0.091,0.03-0.183,0.057-0.277,0.082c-0.108,0.033-0.219,0.063-0.313,0.094l-0.586,0.195
			l-0.467,0.155l0.429,0.239l1.963,1.101l0.075,0.042l0.084-0.021l0.106-0.026C21.43,3.929,23.211,3.712,25,3.712
			c3.726,0,7.381,0.939,10.572,2.718c4.621,2.583,8.09,6.693,9.786,11.589l-1.962,0.667l-0.318,0.106l0.229,0.246l2.536,2.709
			l2.604,2.927l0.33,0.369l0.053-0.491l0.413-3.889l0.323-3.746l0.03-0.332L49.28,16.693z"/>
	</defs>
	<clipPath id="SVGID_22_">
		<use xlink:href="#SVGID_21_"  overflow="visible"/>
	</clipPath>
	<g clip-path="url(#SVGID_22_)">
		<defs>
			<rect id="SVGID_23_" x="0.402" y="1.161" width="49.396" height="47.401"/>
		</defs>
		<clipPath id="SVGID_24_">
			<use xlink:href="#SVGID_23_"  overflow="visible"/>
		</clipPath>
		<rect x="12.056" y="-3.33" clip-path="url(#SVGID_24_)" fill="#A2B5C7" width="42.531" height="33.362"/>
	</g>
</g>
<rect x="0.402" y="1.66" fill="none" width="49.396" height="46.902"/>
<rect x="-640.271" y="-323.666" fill="none" width="1596.69" height="1084.753"/>
<rect x="0.402" y="1.659" fill-rule="evenodd" clip-rule="evenodd" fill="none" width="49.195" height="46.682"/>
</svg>
