<?xml version="1.0" encoding="utf-8"?>
<!-- Generator: Adobe Illustrator 16.0.0, SVG Export Plug-In . SVG Version: 6.00 Build 0)  -->
<!DOCTYPE svg PUBLIC "-//W3C//DTD SVG 1.1//EN" "http://www.w3.org/Graphics/SVG/1.1/DTD/svg11.dtd">
<svg version="1.1" id="Layer_1" xmlns="http://www.w3.org/2000/svg" xmlns:xlink="http://www.w3.org/1999/xlink" x="0px" y="0px"
	 width="50px" height="50px" viewBox="0 0 50 50" enable-background="new 0 0 50 50" xml:space="preserve">
<rect x="-640.271" y="-323.666" fill="none" width="1596.69" height="1084.753"/>
<g>
	<defs>
		<path id="SVGID_1_" d="M18.615,29.993l5.694,7.597c0.193,0.258,0.497,0.41,0.819,0.41s0.626-0.152,0.819-0.41l5.71-7.617h9.372
			l1.347,4.313h-9.592v2.047h10.242l1.117,3.58H25.257c-0.566,0-1.024,0.459-1.024,1.023v5.039h-5.828l0.451-8.564
			c0.016-0.279-0.085-0.555-0.279-0.758c-0.194-0.205-0.463-0.32-0.745-0.32H7.307l2.167-6.359L18.615,29.993z M13.576,15.157
			c0.363-5.463,4.768-11.132,11.553-11.132c6.785,0,11.19,5.627,11.554,11.116c0.159,2.874-0.715,5.71-2.464,7.997l-9.09,12.13
			l-9.075-12.13C14.303,20.857,13.424,18.027,13.576,15.157z M26.281,45.975v-4.016h18.482l1.234,4.016H26.281z M6.61,38.379h10.166
			l-0.425,7.596H4.004L6.61,38.379z M7.773,28.622L1.628,46.656c-0.112,0.314-0.063,0.662,0.129,0.934
			c0.193,0.271,0.505,0.434,0.839,0.432h44.811c0.326,0.002,0.633-0.154,0.827-0.416c0.192-0.264,0.248-0.602,0.151-0.914
			l-5.634-18.034c-0.135-0.427-0.531-0.716-0.979-0.716h-8.577l2.663-3.581c2.045-2.671,3.07-5.983,2.888-9.342
			C38.239,7.713,32.269,1.978,25.129,1.978c-7.139,0-13.11,5.735-13.602,13.041c-0.182,3.359,0.842,6.671,2.888,9.342l2.663,3.581
			H8.741C8.307,27.939,7.918,28.213,7.773,28.622z"/>
	</defs>
	<clipPath id="SVGID_2_">
		<use xlink:href="#SVGID_1_"  overflow="visible"/>
	</clipPath>
	<g clip-path="url(#SVGID_2_)">
		<defs>
			<rect id="SVGID_3_" x="-272.679" y="-350.313" width="1713.265" height="1163.951"/>
		</defs>
		<clipPath id="SVGID_4_">
			<use xlink:href="#SVGID_3_"  overflow="visible"/>
		</clipPath>
		<rect x="-3.785" y="-3.376" clip-path="url(#SVGID_4_)" fill="#A2B5C7" width="57.57" height="56.751"/>
	</g>
</g>
<g>
	<defs>
		<path id="SVGID_5_" d="M25,18.782c-1.515,0.014-2.889-0.886-3.479-2.281c-0.59-1.394-0.279-3.005,0.787-4.081
			s2.677-1.401,4.078-0.826c1.401,0.576,2.315,1.94,2.316,3.454C28.709,17.099,27.053,18.768,25,18.782z M31.09,15.047
			c-0.02-3.355-2.755-6.061-6.114-6.048c-3.359,0.013-6.073,2.741-6.066,6.096c0.006,3.356,2.731,6.072,6.09,6.072
			C28.372,21.154,31.098,18.417,31.09,15.047z"/>
	</defs>
	<clipPath id="SVGID_6_">
		<use xlink:href="#SVGID_5_"  overflow="visible"/>
	</clipPath>
	<g clip-path="url(#SVGID_6_)">
		<defs>
			<rect id="SVGID_7_" x="-322.074" y="-410.313" width="1997.55" height="1357.085"/>
		</defs>
		<clipPath id="SVGID_8_">
			<use xlink:href="#SVGID_7_"  overflow="visible"/>
		</clipPath>
		<rect x="12.667" y="2.756" clip-path="url(#SVGID_8_)" fill="#A2B5C7" width="24.665" height="24.653"/>
	</g>
</g>
</svg>
