<?xml version="1.0" encoding="utf-8"?>
<!-- Generator: Adobe Illustrator 16.0.0, SVG Export Plug-In . SVG Version: 6.00 Build 0)  -->
<!DOCTYPE svg PUBLIC "-//W3C//DTD SVG 1.1//EN" "http://www.w3.org/Graphics/SVG/1.1/DTD/svg11.dtd">
<svg version="1.1" id="Layer_1" xmlns="http://www.w3.org/2000/svg" xmlns:xlink="http://www.w3.org/1999/xlink" x="0px" y="0px"
	 width="149px" height="149px" viewBox="25.5 25.5 149 149" enable-background="new 25.5 25.5 149 149" xml:space="preserve">
<path fill="#A2B5C7" d="M100,32.458c-22.863,0-41.54,18.677-41.54,41.54v11.915c-7.567,0-13.686,6.118-13.686,13.685v54.258
	c0,7.568,6.118,13.688,13.686,13.688h83.079c7.567,0,13.687-6.119,13.687-13.688V99.597c0-7.567-6.119-13.685-13.687-13.685V73.998
	C141.539,51.134,122.863,32.458,100,32.458z M127.049,85.912H72.951V73.998c0-14.813,12.075-27.049,27.049-27.049
	s27.049,12.237,27.049,27.049V85.912z"/>
</svg>
