<?xml version="1.0" encoding="utf-8"?>
<!-- Generator: Adobe Illustrator 16.0.0, SVG Export Plug-In . SVG Version: 6.00 Build 0)  -->
<!DOCTYPE svg PUBLIC "-//W3C//DTD SVG 1.1//EN" "http://www.w3.org/Graphics/SVG/1.1/DTD/svg11.dtd">
<svg version="1.1" id="Layer_1" xmlns="http://www.w3.org/2000/svg" xmlns:xlink="http://www.w3.org/1999/xlink" x="0px" y="0px"
	 width="12.667px" height="17px" viewBox="0 0 12.667 17" enable-background="new 0 0 12.667 17" xml:space="preserve">
<path fill="#2E8DC2" d="M6.334,0.121c-3.358,0-6.084,2.725-6.084,6.084c0,1.156,0.316,2.239,0.877,3.154
	C1.24,9.564,1.37,9.75,1.519,9.918l4.814,6.961l4.814-6.941c0.149-0.188,0.28-0.373,0.392-0.561
	c0.562-0.933,0.879-2.016,0.879-3.172C12.417,2.846,9.692,0.121,6.334,0.121z M6.333,8.78c-1.81,0-3.266-1.456-3.266-3.266
	c0-1.811,1.456-3.266,3.266-3.266c1.811,0,3.266,1.455,3.266,3.266C9.599,7.306,8.144,8.78,6.333,8.78z"/>
</svg>
