<?xml version="1.0" encoding="utf-8"?>
<!-- Generator: Adobe Illustrator 16.0.0, SVG Export Plug-In . SVG Version: 6.00 Build 0)  -->
<!DOCTYPE svg PUBLIC "-//W3C//DTD SVG 1.1//EN" "http://www.w3.org/Graphics/SVG/1.1/DTD/svg11.dtd">
<svg version="1.1" id="Layer_1" xmlns="http://www.w3.org/2000/svg" xmlns:xlink="http://www.w3.org/1999/xlink" x="0px" y="0px"
	 width="40px" height="40px" viewBox="0 0 40 40" enable-background="new 0 0 40 40" xml:space="preserve">
<path fill="#A2B5C7" d="M10.504,24.06c0.231,1.464,0.135,2.96-0.283,4.382c-0.138,0.473,0.133,0.968,0.606,1.106
	c0.214,0.062,0.443,0.042,0.643-0.056c1.85-0.935,4.467-2.652,5.867-5.316h1.857c6.142,0.005,11.124-4.97,11.129-11.112
	c0-0.001,0-0.002,0-0.004l0,0c0-6.14-4.977-11.119-11.117-11.121h-7.084C5.979,1.939,1,6.918,1,13.06l0,0l0,0
	C1.001,18.576,5.046,23.258,10.504,24.06z M20.14,11.443c0.893,0,1.617,0.724,1.617,1.617s-0.725,1.617-1.617,1.617
	c-0.893,0-1.617-0.724-1.617-1.617l0,0C18.525,12.167,19.248,11.445,20.14,11.443z M15.661,11.443c0.893,0,1.617,0.724,1.617,1.617
	s-0.724,1.617-1.617,1.617s-1.617-0.724-1.617-1.617C14.046,12.167,14.769,11.445,15.661,11.443z M11.183,11.443
	c0.893,0,1.617,0.724,1.617,1.617s-0.724,1.617-1.617,1.617s-1.617-0.724-1.617-1.617c0.002-0.894,0.727-1.617,1.621-1.617H11.183z
	 M39,23.986c-0.022,4.506-3.063,8.438-7.418,9.593c-0.013,0.634,0.072,1.266,0.252,1.873c0.316,1.079-0.302,2.21-1.381,2.526
	c-0.494,0.145-1.024,0.097-1.484-0.134c-1.474-0.745-3.404-2.013-4.685-3.951h-0.663c-2.754-0.005-5.383-1.15-7.262-3.164
	c-0.422-0.614-0.267-1.454,0.347-1.877c0.498-0.342,1.162-0.313,1.627,0.073c1.362,1.477,3.281,2.313,5.289,2.304h1.42
	c0.501,0,0.961,0.277,1.194,0.721c0.656,1.147,1.589,2.111,2.714,2.804c-0.093-0.822-0.075-1.652,0.051-2.47
	c0.089-0.586,0.55-1.045,1.136-1.132c3.949-0.566,6.691-4.228,6.126-8.177c-0.321-2.239-1.673-4.198-3.652-5.294
	c-0.648-0.364-0.88-1.185-0.516-1.834s1.186-0.88,1.834-0.516C37.058,17.089,38.996,20.398,39,23.986z"/>
</svg>
