<?xml version="1.0" encoding="utf-8"?>
<!-- Generator: Adobe Illustrator 16.0.0, SVG Export Plug-In . SVG Version: 6.00 Build 0)  -->
<!DOCTYPE svg PUBLIC "-//W3C//DTD SVG 1.1//EN" "http://www.w3.org/Graphics/SVG/1.1/DTD/svg11.dtd">
<svg version="1.1" id="Layer_1" xmlns="http://www.w3.org/2000/svg" xmlns:xlink="http://www.w3.org/1999/xlink" x="0px" y="0px"
	 width="30px" height="30px" viewBox="0 0 30 30" enable-background="new 0 0 30 30" xml:space="preserve">
<g>
	<g>
		<g>
			<g>
				<path fill="#A2B5C7" d="M14.999,27.684c-1.956,0-4.83-0.134-7.203-1.294c-1.275-0.626-2.271-1.486-2.961-2.557
					c-0.787-1.222-1.186-2.734-1.186-4.495c0-1.225,0.133-2.31,0.418-3.415l0.055-0.213l-0.219-0.021
					c-1.431-0.135-2.449-0.775-3.111-1.96c-0.679-1.213-0.396-2.882,0.84-4.959c0.925-1.56,2.23-3.047,3.113-3.83
					C6.18,3.669,7.421,3.402,8.21,3.402c0.252,0,0.498,0.026,0.729,0.078c0.313,0.071,0.599,0.187,0.852,0.341l0.108,0.065L10,3.812
					c1.356-1.006,2.991-1.495,4.998-1.495c2.009,0,3.646,0.489,5,1.495l0.102,0.075l0.108-0.065c0.253-0.154,0.539-0.27,0.854-0.341
					c0.23-0.052,0.476-0.078,0.729-0.078c0.789,0,2.03,0.267,3.464,1.538c0.883,0.781,2.188,2.268,3.114,3.83
					c1.236,2.079,1.519,3.748,0.84,4.959c-0.662,1.185-1.68,1.825-3.11,1.96l-0.22,0.021l0.056,0.213
					c0.285,1.107,0.418,2.192,0.418,3.415c0,1.761-0.399,3.273-1.187,4.495c-0.689,1.069-1.686,1.93-2.962,2.557
					C19.832,27.55,16.955,27.684,14.999,27.684z M14.999,16.724c1.141,0,1.82,0.091,2.343,0.313c0.754,0.317,1.168,0.95,1.168,1.781
					c0,1.049-0.83,1.989-1.188,2.346c-0.267,0.268-0.814,0.754-1.486,1.015l-0.12,0.047v4.021l0.193-0.006
					c2.399-0.075,4.253-0.447,5.666-1.139c2.252-1.101,3.347-2.985,3.347-5.764c0-2.345-0.539-3.774-1.283-5.753l-0.053-0.142
					c-0.239-0.641-0.508-1.359-0.777-2.17c-1.625-4.88-3.351-7.525-7.81-7.525c-4.459,0-6.184,2.646-7.808,7.525
					c-0.289,0.871-0.577,1.636-0.832,2.312c-0.746,1.987-1.281,3.414-1.281,5.753c0,2.779,1.094,4.664,3.346,5.764
					c1.414,0.691,3.267,1.063,5.665,1.139l0.194,0.006v-4.021l-0.12-0.047c-0.697-0.271-1.271-0.8-1.486-1.015
					c-0.357-0.356-1.186-1.298-1.186-2.346c0-0.832,0.414-1.465,1.166-1.78C13.181,16.814,13.859,16.724,14.999,16.724z
					 M14.999,18.156c-0.611,0-1.367,0.022-1.785,0.198c-0.207,0.089-0.291,0.172-0.291,0.463c0,0.341,0.308,0.877,0.767,1.333
					c0.449,0.449,0.987,0.763,1.31,0.763c0.324,0,0.864-0.313,1.313-0.763c0.459-0.457,0.767-0.993,0.767-1.333
					c0-0.291-0.084-0.374-0.286-0.461C16.367,18.179,15.61,18.156,14.999,18.156z M8.217,4.835c-0.547,0-1.429,0.204-2.524,1.177
					C4.92,6.697,3.704,8.082,2.86,9.501c-0.927,1.563-1.219,2.817-0.821,3.53c0.559,1,1.364,1.224,2.4,1.253l0.136,0.003
					l0.046-0.128c0.118-0.328,0.243-0.662,0.373-1.006l0.026-0.071c0.273-0.727,0.538-1.434,0.812-2.261
					C6.5,8.819,7.298,6.747,8.602,5.157l0.213-0.261L8.481,4.852C8.406,4.842,8.318,4.835,8.217,4.835z M21.784,4.835
					c-0.102,0-0.189,0.007-0.266,0.017l-0.333,0.045l0.213,0.26c1.307,1.595,2.104,3.665,2.77,5.666
					c0.275,0.836,0.545,1.55,0.805,2.241l0.04,0.105c0.127,0.338,0.25,0.668,0.366,0.991l0.046,0.127l0.136-0.003
					c1.036-0.029,1.84-0.253,2.399-1.253c0.398-0.714,0.107-1.968-0.821-3.53c-0.843-1.421-2.058-2.805-2.831-3.489
					C23.209,5.039,22.329,4.835,21.784,4.835z"/>
			</g>
			<g>
				<ellipse fill="#A2B5C7" cx="11.994" cy="13.213" rx="0.998" ry="1.013"/>
			</g>
			<g>
				<path fill="#A2B5C7" d="M17.998,14.246c-0.556,0-1.008-0.459-1.008-1.023c0-0.563,0.452-1.022,1.008-1.022
					c0.554,0,1.006,0.459,1.006,1.022C19.004,13.787,18.552,14.246,17.998,14.246z"/>
			</g>
		</g>
	</g>
</g>
</svg>
