<?xml version="1.0" encoding="utf-8"?>
<!-- Generator: Adobe Illustrator 16.0.0, SVG Export Plug-In . SVG Version: 6.00 Build 0)  -->
<!DOCTYPE svg PUBLIC "-//W3C//DTD SVG 1.1//EN" "http://www.w3.org/Graphics/SVG/1.1/DTD/svg11.dtd">
<svg version="1.1" id="Layer_1" xmlns="http://www.w3.org/2000/svg" xmlns:xlink="http://www.w3.org/1999/xlink" x="0px" y="0px"
	 width="13px" height="30px" viewBox="0 0 13 30" enable-background="new 0 0 13 30" xml:space="preserve">
<path fill="#FFFFFF" d="M7.949,0.498v7.251c-0.23,0-0.463,0.116-0.579,0.348l0,0C6.616,9.431,5.804,11.81,5.804,15
	c0,3.189,0.813,5.568,1.566,6.902l0,0c0.116,0.175,0.349,0.35,0.579,0.35v7.25c-4.001,0-7.25-6.497-7.25-14.502
	S3.948,0.498,7.949,0.498z M12.012,7.517c0.173-0.174,0.231-0.406,0.231-0.638V1.368c0-0.232-0.059-0.464-0.231-0.638
	c-0.117-0.174-0.35-0.232-0.58-0.232H8.82v7.251h2.611C11.662,7.749,11.895,7.691,12.012,7.517z M11.432,22.252H8.82v7.25h2.611
	c0.23,0,0.463-0.058,0.637-0.232c0.175-0.174,0.232-0.406,0.232-0.637v-5.512c0-0.232-0.058-0.464-0.232-0.639
	C11.895,22.309,11.662,22.252,11.432,22.252z"/>
</svg>
