<?xml version="1.0" encoding="utf-8"?>
<!-- Generator: Adobe Illustrator 16.0.0, SVG Export Plug-In . SVG Version: 6.00 Build 0)  -->
<!DOCTYPE svg PUBLIC "-//W3C//DTD SVG 1.1//EN" "http://www.w3.org/Graphics/SVG/1.1/DTD/svg11.dtd">
<svg version="1.1" id="Layer_1" xmlns="http://www.w3.org/2000/svg" xmlns:xlink="http://www.w3.org/1999/xlink" x="0px" y="0px"
	 width="21.667px" height="21.667px" viewBox="0 0 21.667 21.667" enable-background="new 0 0 21.667 21.667" xml:space="preserve">
<g>
	<defs>
		<path id="SVGID_1_" d="M10.833,0C4.86,0,0,4.86,0,10.833s4.86,10.834,10.833,10.834s10.834-4.86,10.834-10.834S16.806,0,10.833,0
			 M10.833,20.246c-5.189,0-9.412-4.222-9.412-9.412c0-5.19,4.223-9.413,9.412-9.413c5.19,0,9.413,4.223,9.413,9.413
			C20.246,16.024,16.023,20.246,10.833,20.246"/>
	</defs>
	<clipPath id="SVGID_2_">
		<use xlink:href="#SVGID_1_"  overflow="visible"/>
	</clipPath>
	<g clip-path="url(#SVGID_2_)">
		<defs>
			<rect id="SVGID_3_" x="-524.522" y="-726.747" width="1444.467" height="1623.219"/>
		</defs>
		<clipPath id="SVGID_4_">
			<use xlink:href="#SVGID_3_"  overflow="visible"/>
		</clipPath>
		<rect x="-4.514" y="-4.514" clip-path="url(#SVGID_4_)" fill="#0A3C5D" width="30.695" height="30.695"/>
	</g>
</g>
<g>
	<defs>
		<path id="SVGID_5_" d="M15.138,10.123h-3.594V6.528c0-0.392-0.318-0.71-0.71-0.71s-0.71,0.318-0.71,0.71v3.596H6.528
			c-0.392,0-0.71,0.318-0.71,0.71s0.318,0.71,0.71,0.71h3.595v3.595c0,0.393,0.318,0.71,0.71,0.71c0.392,0,0.71-0.317,0.71-0.71
			v-3.595h3.595c0.393,0,0.711-0.318,0.711-0.71S15.531,10.123,15.138,10.123"/>
	</defs>
	<clipPath id="SVGID_6_">
		<use xlink:href="#SVGID_5_"  overflow="visible"/>
	</clipPath>
	<g clip-path="url(#SVGID_6_)">
		<defs>
			<rect id="SVGID_7_" x="-524.522" y="-726.747" width="1444.467" height="1623.219"/>
		</defs>
		<clipPath id="SVGID_8_">
			<use xlink:href="#SVGID_7_"  overflow="visible"/>
		</clipPath>
		<rect x="1.304" y="1.304" clip-path="url(#SVGID_8_)" fill="#0A3C5D" width="19.059" height="19.059"/>
	</g>
</g>
</svg>
