<?xml version="1.0" encoding="utf-8"?>
<!-- Generator: Adobe Illustrator 16.0.0, SVG Export Plug-In . SVG Version: 6.00 Build 0)  -->
<!DOCTYPE svg PUBLIC "-//W3C//DTD SVG 1.1//EN" "http://www.w3.org/Graphics/SVG/1.1/DTD/svg11.dtd">
<svg version="1.1" id="Layer_1" xmlns="http://www.w3.org/2000/svg" xmlns:xlink="http://www.w3.org/1999/xlink" x="0px" y="0px"
	 width="30px" height="30px" viewBox="0 0 30 30" enable-background="new 0 0 30 30" xml:space="preserve">
<g>
	<path fill="#A2B5C7" d="M25.308,24.962c-1.169,0-2.269,0.457-3.101,1.288c-0.558,0.559-1.299,0.864-2.088,0.864
		c-0.788,0-1.529-0.306-2.087-0.864c-0.827-0.826-1.927-1.282-3.096-1.282c-1.17,0-2.27,0.456-3.102,1.288
		c-0.542,0.541-1.261,0.837-2.028,0.837c-0.767,0-1.487-0.301-2.028-0.837c-0.828-0.827-1.927-1.283-3.097-1.283
		c-1.17,0-2.27,0.456-3.096,1.283c-0.295,0.295-0.295,0.772,0,1.072c0.295,0.301,0.773,0.296,1.073,0
		c0.542-0.542,1.261-0.837,2.028-0.837c0.768,0,1.486,0.301,2.028,0.837c0.827,0.826,1.927,1.282,3.096,1.282
		c1.171,0,2.27-0.456,3.102-1.287c0.543-0.542,1.262-0.838,2.029-0.838s1.486,0.301,2.028,0.838
		c0.843,0.842,1.964,1.309,3.154,1.309c1.191,0,2.313-0.467,3.161-1.309c0.542-0.542,1.262-0.838,2.027-0.838
		c0.769,0,1.487,0.301,2.028,0.838c0.296,0.295,0.773,0.295,1.073,0c0.296-0.295,0.296-0.772,0-1.073
		C27.578,25.419,26.479,24.962,25.308,24.962z"/>
	<path fill="#A2B5C7" d="M2.659,21.265c0.542-0.542,1.261-0.837,2.028-0.837c0.768,0,1.486,0.301,2.028,0.837
		c0.827,0.826,1.927,1.282,3.096,1.282c1.171,0,2.27-0.456,3.102-1.287c0.543-0.543,1.262-0.837,2.029-0.837s1.486,0.3,2.028,0.837
		c0.843,0.842,1.964,1.31,3.154,1.31c1.191,0,2.313-0.468,3.161-1.31c0.542-0.543,1.262-0.837,2.027-0.837
		c0.769,0,1.487,0.3,2.028,0.837c0.296,0.295,0.773,0.295,1.073,0c0.296-0.295,0.296-0.772,0-1.073
		c-0.825-0.827-1.926-1.282-3.095-1.282c-1.17,0-2.271,0.455-3.102,1.287c-0.505,0.505-1.164,0.805-1.873,0.854V4.808
		c0-1.895-1.546-3.44-3.439-3.44c-1.894,0-3.439,1.545-3.439,3.44c0,0.418,0.338,0.756,0.756,0.756c0.419,0,0.757-0.338,0.757-0.756
		c0-1.063,0.863-1.927,1.926-1.927c1.063,0,1.926,0.864,1.926,1.927v2.585h-8.472V4.808c0-1.895-1.546-3.44-3.44-3.44
		s-3.439,1.545-3.439,3.44c0,0.418,0.338,0.756,0.756,0.756s0.757-0.338,0.757-0.756c0-1.063,0.864-1.927,1.926-1.927
		c1.063,0,1.927,0.864,1.927,1.927v16.06c-0.397-0.14-0.756-0.365-1.063-0.671c-0.826-0.826-1.926-1.282-3.096-1.282
		c-1.169,0-2.27,0.456-3.096,1.282c-0.295,0.295-0.295,0.771,0,1.073C1.886,21.57,2.363,21.56,2.659,21.265z M10.359,8.912h8.462
		v3.955h-8.462V8.912z M10.359,14.38h8.462v6.375c-0.29-0.14-0.554-0.328-0.789-0.564c-0.827-0.825-1.927-1.282-3.096-1.282
		c-1.17,0-2.27,0.457-3.102,1.288c-0.408,0.408-0.917,0.677-1.476,0.783V14.38z"/>
</g>
</svg>
