<?xml version="1.0" encoding="utf-8"?>
<!-- Generator: Adobe Illustrator 22.0.1, SVG Export Plug-In . SVG Version: 6.00 Build 0)  -->
<svg version="1.1" xmlns="http://www.w3.org/2000/svg" xmlns:xlink="http://www.w3.org/1999/xlink" x="0px" y="0px"
	 viewBox="0 0 287.9 71.9" style="enable-background:new 0 0 287.9 71.9;" xml:space="preserve">
<style type="text/css">
	.st0{fill:#999999;}
</style>
<g id="BG">
</g>
<g id="graphics">
	<path class="st0" d="M52.1,67.1c2.6-1.7,6.3-3.9,10.2-8.5c5.2-6.2,8.1-14.1,8.1-22.4c0-19.3-15.7-35.1-35.1-35.1
		C16,1.1,0.3,16.9,0.3,36.2c0,9.1,3.5,17.8,9.8,24.3c2.6,2.7,4.6,4,7.8,6.3c0.2,0.1,0.1,1.2,0.1-22.6h11.8v23.5
		c-2.6-0.5-3.3-0.7-4.4-1V46.8h-3v21.3c0,0.4,0.3,0.8,0.6,0.9c3.3,1.1,5.5,1.5,9.3,2.2c0.2,0,0.5-0.1,0.5-0.4V41.7
		c0-0.3-0.3-0.6-0.6-0.6h-6.8V19.5h19.2v7.9h-6.8c-0.3,0-0.6,0.3-0.6,0.6v42.7c0,0.3,0.2,0.5,0.5,0.5c4-0.4,5.5-0.7,9.2-1.9
		c0.4-0.1,0.7-0.5,0.7-0.9V17.1c0-0.3-0.3-0.6-0.6-0.6H22.9c-0.3,0-0.6,0.3-0.6,0.6v24.1h-6.8c-0.3,0-0.6,0.3-0.6,0.6v19.2
		c-1-0.8-2.4-2-4.1-4.1c-4.8-5.7-7.5-13-7.5-20.6c0-17.7,14.4-32,32-32c17.7,0,32,14.4,32,32c0,9.5-3.9,18.4-12.4,25.3L55,28
		c0-0.3-0.3-0.6-0.6-0.6h-4.1v3h1.7C51.9,68.6,51.9,67.2,52.1,67.1z M44.5,66.9c-1.8,0.5-2.7,0.7-4.4,1V30.5h4.4V66.9z"/>
	<g>
		<path class="st0" d="M94.1,28.5c1.3,0.6,2.3,1.4,2.9,2.5c0.7,1.1,1,2.3,1,3.8s-0.3,2.7-1,3.7c-0.7,1.1-1.7,1.9-2.9,2.4
			c-1.3,0.6-2.8,0.9-4.5,0.9h-3.3v5h-5.4V27.7h8.7C91.3,27.7,92.8,28,94.1,28.5z M91.8,36.8c0.6-0.5,0.8-1.2,0.8-2.1
			c0-0.9-0.3-1.6-0.8-2.1c-0.6-0.5-1.4-0.7-2.5-0.7h-3v5.6h3C90.4,37.5,91.2,37.3,91.8,36.8z"/>
		<path class="st0" d="M105.1,45.9c-1.6-0.9-2.9-2-3.8-3.5c-0.9-1.5-1.4-3.2-1.4-5.1s0.5-3.6,1.4-5.1c0.9-1.5,2.2-2.7,3.8-3.5
			s3.4-1.3,5.4-1.3s3.8,0.4,5.4,1.3c1.6,0.9,2.9,2,3.8,3.5c0.9,1.5,1.4,3.2,1.4,5.1s-0.5,3.6-1.4,5.1c-0.9,1.5-2.2,2.7-3.8,3.5
			c-1.6,0.9-3.4,1.3-5.4,1.3S106.7,46.7,105.1,45.9z M113.2,42c0.8-0.5,1.4-1.1,1.9-1.9c0.5-0.8,0.7-1.8,0.7-2.9
			c0-1.1-0.2-2-0.7-2.9s-1.1-1.5-1.9-1.9c-0.8-0.5-1.7-0.7-2.6-0.7c-1,0-1.8,0.2-2.6,0.7c-0.8,0.5-1.4,1.1-1.9,1.9
			c-0.5,0.8-0.7,1.8-0.7,2.9c0,1.1,0.2,2,0.7,2.9c0.5,0.8,1.1,1.5,1.9,1.9c0.8,0.5,1.7,0.7,2.6,0.7C111.5,42.7,112.4,42.5,113.2,42z
			"/>
		<path class="st0" d="M132.4,41.7h-2.9v5.1H124V27.7h8.7c1.7,0,3.2,0.3,4.5,0.9c1.3,0.6,2.3,1.4,2.9,2.5c0.7,1.1,1,2.3,1,3.8
			c0,1.4-0.3,2.6-1,3.6c-0.6,1-1.6,1.8-2.8,2.4l4.1,6h-5.8L132.4,41.7z M134.9,32.7c-0.6-0.5-1.4-0.7-2.5-0.7h-3v5.6h3
			c1.1,0,1.9-0.2,2.5-0.7c0.6-0.5,0.8-1.2,0.8-2.1C135.8,33.9,135.5,33.2,134.9,32.7z"/>
		<path class="st0" d="M148,32h-5.9v-4.3h17.1V32h-5.8v14.8H148V32z"/>
		<path class="st0" d="M173.1,43.1H165l-1.5,3.7H158l8.4-19.1h5.3l8.5,19.1h-5.6L173.1,43.1z M171.5,39.1l-2.5-6.1l-2.5,6.1H171.5z"
			/>
		<path class="st0" d="M181.7,27.7h5.4v14.8h9.1v4.3h-14.5V27.7z"/>
		<path class="st0" d="M206.3,27.7h5.4v14.8h9.1v4.3h-14.5V27.7z"/>
		<path class="st0" d="M226.8,45.9c-1.6-0.9-2.9-2-3.8-3.5c-0.9-1.5-1.4-3.2-1.4-5.1s0.5-3.6,1.4-5.1c0.9-1.5,2.2-2.7,3.8-3.5
			s3.4-1.3,5.4-1.3s3.8,0.4,5.4,1.3s2.9,2,3.8,3.5c0.9,1.5,1.4,3.2,1.4,5.1s-0.5,3.6-1.4,5.1c-0.9,1.5-2.2,2.7-3.8,3.5
			c-1.6,0.9-3.4,1.3-5.4,1.3S228.5,46.7,226.8,45.9z M234.9,42c0.8-0.5,1.4-1.1,1.9-1.9c0.5-0.8,0.7-1.8,0.7-2.9
			c0-1.1-0.2-2-0.7-2.9c-0.5-0.8-1.1-1.5-1.9-1.9c-0.8-0.5-1.7-0.7-2.6-0.7s-1.8,0.2-2.6,0.7c-0.8,0.5-1.4,1.1-1.9,1.9
			c-0.5,0.8-0.7,1.8-0.7,2.9c0,1.1,0.2,2,0.7,2.9c0.5,0.8,1.1,1.5,1.9,1.9c0.8,0.5,1.7,0.7,2.6,0.7S234.1,42.5,234.9,42z"/>
		<path class="st0" d="M258.5,36.8h4.8v7.9c-1.1,0.8-2.3,1.4-3.8,1.8c-1.4,0.4-2.8,0.6-4.3,0.6c-2,0-3.8-0.4-5.4-1.3
			c-1.6-0.8-2.9-2-3.8-3.5c-0.9-1.5-1.4-3.2-1.4-5.1c0-1.9,0.5-3.6,1.4-5.1c0.9-1.5,2.2-2.7,3.8-3.5c1.6-0.8,3.4-1.3,5.5-1.3
			c1.8,0,3.4,0.3,4.8,0.9c1.4,0.6,2.6,1.5,3.5,2.6l-3.4,3.1c-1.3-1.4-2.8-2.1-4.6-2.1c-1.6,0-3,0.5-4,1.5c-1,1-1.5,2.3-1.5,4
			c0,1.1,0.2,2,0.7,2.8c0.5,0.8,1.1,1.5,1.9,1.9s1.8,0.7,2.8,0.7c1,0,2-0.2,2.9-0.6V36.8z"/>
		<path class="st0" d="M270.9,45.9c-1.6-0.9-2.9-2-3.8-3.5c-0.9-1.5-1.4-3.2-1.4-5.1s0.5-3.6,1.4-5.1c0.9-1.5,2.2-2.7,3.8-3.5
			s3.4-1.3,5.4-1.3s3.8,0.4,5.4,1.3s2.9,2,3.8,3.5c0.9,1.5,1.4,3.2,1.4,5.1s-0.5,3.6-1.4,5.1c-0.9,1.5-2.2,2.7-3.8,3.5
			c-1.6,0.9-3.4,1.3-5.4,1.3S272.5,46.7,270.9,45.9z M279,42c0.8-0.5,1.4-1.1,1.9-1.9c0.5-0.8,0.7-1.8,0.7-2.9c0-1.1-0.2-2-0.7-2.9
			c-0.5-0.8-1.1-1.5-1.9-1.9c-0.8-0.5-1.7-0.7-2.6-0.7s-1.8,0.2-2.6,0.7c-0.8,0.5-1.4,1.1-1.9,1.9c-0.5,0.8-0.7,1.8-0.7,2.9
			c0,1.1,0.2,2,0.7,2.9c0.5,0.8,1.1,1.5,1.9,1.9c0.8,0.5,1.7,0.7,2.6,0.7S278.2,42.5,279,42z"/>
	</g>
</g>
</svg>
