<?xml version="1.0" encoding="utf-8"?>
<!-- Generator: Adobe Illustrator 16.0.0, SVG Export Plug-In . SVG Version: 6.00 Build 0)  -->
<!DOCTYPE svg PUBLIC "-//W3C//DTD SVG 1.1//EN" "http://www.w3.org/Graphics/SVG/1.1/DTD/svg11.dtd">
<svg version="1.1" id="Layer_1" xmlns="http://www.w3.org/2000/svg" xmlns:xlink="http://www.w3.org/1999/xlink" x="0px" y="0px"
	 width="150px" height="130px" viewBox="0 0 150 130" enable-background="new 0 0 150 130" xml:space="preserve">
<g>
	<rect x="18.167" y="8.166" fill="#FFFFFF" width="113.667" height="113.668"/>
	<g>
		<path fill="#A2B5C7" d="M131.834,118.084c-37.889,0-75.778,0-113.667,0c1.25,1.25,2.5,2.5,3.75,3.75c0-37.89,0-75.779,0-113.668
			c-1.25,1.25-2.5,2.5-3.75,3.75c37.889,0,75.779,0,113.667,0c-1.25-1.25-2.5-2.5-3.75-3.75c0,37.889,0,75.778,0,113.668
			c0,4.837,7.5,4.837,7.5,0c0-37.89,0-75.779,0-113.668c0-2.044-1.706-3.75-3.75-3.75c-37.889,0-75.778,0-113.667,0
			c-2.044,0-3.75,1.706-3.75,3.75c0,37.889,0,75.778,0,113.668c0,2.044,1.706,3.75,3.75,3.75c37.889,0,75.779,0,113.667,0
			C136.671,125.584,136.671,118.084,131.834,118.084z"/>
	</g>
</g>
<g>
	<g>
		<defs>
			<path id="SVGID_1_" d="M54.022,31.4c-1.186,0.354-2.117,0.816-2.776,1.4c-0.668,0.58-0.995,1.455-0.995,2.629
				c0,1.117,0.31,1.966,0.938,2.54c0.611,0.563,1.56,1.079,2.834,1.554V31.4z M56.72,45.819v9.293
				c1.423-0.29,2.524-0.859,3.313-1.718c0.77-0.864,1.154-1.87,1.154-3.014c0-1.222-0.379-2.181-1.133-2.85
				C59.302,46.851,58.18,46.283,56.72,45.819z M55.355,23.229c0.912,0.004,1.364,0.58,1.364,1.744v2.296
				c1.502,0.152,2.808,0.464,3.888,0.928c1.081,0.474,2.028,1.175,2.829,2.123c0.639,0.716,1.133,1.465,1.471,2.229
				c0.347,0.764,0.526,1.459,0.526,2.097c0,0.706-0.259,1.316-0.77,1.833c-0.516,0.521-1.154,0.774-1.881,0.774
				c-1.391,0-2.275-0.747-2.696-2.249c-0.464-1.771-1.587-2.939-3.367-3.52v8.819c1.75,0.484,3.15,0.916,4.188,1.316
				c1.038,0.39,1.965,0.97,2.787,1.718c0.874,0.774,1.544,1.707,2.017,2.786c0.475,1.081,0.713,2.266,0.713,3.552
				c0,1.611-0.37,3.124-1.134,4.525c-0.754,1.406-1.864,2.555-3.335,3.444c-1.47,0.891-3.219,1.423-5.236,1.586v5.29
				c0,0.826-0.084,1.438-0.248,1.822c-0.163,0.384-0.516,0.563-1.068,0.563c-0.517,0-0.865-0.146-1.069-0.463
				c-0.206-0.31-0.312-0.79-0.312-1.438v-5.728c-1.654-0.185-3.098-0.568-4.342-1.168c-1.231-0.591-2.265-1.328-3.087-2.214
				c-0.832-0.885-1.438-1.801-1.842-2.755c-0.391-0.953-0.586-1.891-0.586-2.808c0-0.68,0.27-1.285,0.79-1.834
				c0.537-0.548,1.185-0.821,1.976-0.821c0.638,0,1.186,0.152,1.617,0.448c0.432,0.295,0.743,0.716,0.917,1.248
				c0.38,1.164,0.711,2.05,0.995,2.666c0.279,0.61,0.711,1.174,1.274,1.686c0.575,0.506,1.34,0.896,2.287,1.164v-9.862
				c-1.891-0.521-3.477-1.105-4.752-1.744c-1.274-0.646-2.297-1.563-3.097-2.743c-0.791-1.197-1.187-2.719-1.187-4.578
				c0-2.439,0.771-4.432,2.324-5.984c1.543-1.555,3.787-2.461,6.706-2.714V25.01C54.018,23.824,54.46,23.229,55.355,23.229z"/>
		</defs>
		<clipPath id="SVGID_2_">
			<use xlink:href="#SVGID_1_"  overflow="visible"/>
		</clipPath>
		<g clip-path="url(#SVGID_2_)">
			<defs>
				<rect id="SVGID_3_" x="-735.674" y="-441.775" width="1621.428" height="1473.472"/>
			</defs>
			<clipPath id="SVGID_4_">
				<use xlink:href="#SVGID_3_"  overflow="visible"/>
			</clipPath>
			<rect x="39.099" y="18.162" clip-path="url(#SVGID_4_)" fill="#D9B328" width="32.394" height="53.813"/>
		</g>
	</g>
	<g>
		<defs>
			<path id="SVGID_5_" d="M96.615,29.166c-6.032,0-9.509,3.688-10.426,11.053h-2.118c-0.194,0-0.42,0.264-0.678,0.801
				c-0.27,0.543-0.412,0.99-0.412,1.364c0,0.358,0.132,0.533,0.379,0.533h2.614c-0.032,1.169-0.085,2.07-0.085,2.687v0.769h-1.823
				c-0.194,0-0.422,0.259-0.68,0.801c-0.269,0.542-0.41,0.985-0.41,1.338c0,0.369,0.131,0.548,0.38,0.548h2.696
				c0.391,4.004,1.603,6.986,3.631,8.961c2.018,1.977,4.382,2.961,7.101,2.961c2.897,0,5.368-0.88,7.396-2.639
				c2.04-1.761,3.057-3.683,3.057-5.758c0-0.881-0.237-1.56-0.712-2.055c-0.474-0.485-1.144-0.723-1.985-0.723
				c-0.422,0-0.816,0.138-1.186,0.433c-0.368,0.289-0.812,1.021-1.317,2.212c-0.796,1.823-1.617,2.982-2.471,3.478
				c-0.854,0.494-1.802,0.743-2.829,0.743c-2.758,0-4.38-2.526-4.876-7.602h6.225c0.195,0,0.423-0.254,0.69-0.77
				c0.259-0.517,0.391-0.98,0.391-1.392c0-0.353-0.143-0.526-0.422-0.526h-7.006c-0.054-0.29-0.055-0.753-0.055-1.386l0.055-2.075
				h6.347c0.195,0,0.423-0.253,0.69-0.78c0.259-0.517,0.391-0.97,0.391-1.364c0-0.363-0.143-0.548-0.422-0.548h-6.833
				c0.236-2.318,0.784-4.024,1.617-5.115c0.848-1.091,2.049-1.628,3.603-1.628c1.359,0,2.319,0.254,2.883,0.79
				c0.564,0.532,1.059,1.301,1.459,2.302c0.332,0.759,0.659,1.333,0.99,1.692c0.343,0.368,0.865,0.553,1.585,0.553
				c0.648,0,1.191-0.242,1.655-0.722c0.442-0.484,0.68-1.07,0.68-1.76c0-2.039-0.97-3.745-2.893-5.115
				C101.562,29.852,99.281,29.166,96.615,29.166z"/>
		</defs>
		<clipPath id="SVGID_6_">
			<use xlink:href="#SVGID_5_"  overflow="visible"/>
		</clipPath>
		<g clip-path="url(#SVGID_6_)">
			<defs>
				<rect id="SVGID_7_" x="-735.674" y="-441.775" width="1621.428" height="1473.472"/>
			</defs>
			<clipPath id="SVGID_8_">
				<use xlink:href="#SVGID_7_"  overflow="visible"/>
			</clipPath>
			<rect x="77.909" y="24.1" clip-path="url(#SVGID_8_)" fill="#D9B328" width="34.394" height="41.947"/>
		</g>
	</g>
	<g>
		<defs>
			<path id="SVGID_9_" d="M55.745,74.498c-1.965,0-3.715,0.391-5.247,1.159c-1.522,0.774-2.697,1.834-3.51,3.192
				c-0.821,1.354-1.231,2.903-1.231,4.646c0,1.271,0.348,3.01,1.038,5.213h-1.243c-1.802,0-2.708,0.688-2.708,2.08
				c0,0.765,0.273,1.273,0.801,1.532c0.532,0.246,1.316,0.374,2.364,0.374h1.781c0.132,0.874,0.217,1.496,0.217,1.865
				c0,1.06-0.248,2.134-0.743,3.229c-0.485,1.098-1.09,1.944-1.813,2.556c-0.79,0.679-1.38,1.227-1.781,1.645
				c-0.399,0.421-0.689,0.79-0.873,1.117c-0.174,0.326-0.27,0.632-0.27,0.932c0,0.791,0.254,1.428,0.77,1.918
				c0.517,0.488,1.038,0.737,1.575,0.737c0.399,0,1.154-0.228,2.266-0.68c1.11-0.458,1.88-0.769,2.344-0.938
				c0.453-0.167,0.969-0.252,1.564-0.252c0.543,0,1.027,0.025,1.428,0.085c0.396,0.057,0.723,0.125,0.991,0.214
				c0.263,0.074,0.453,0.117,0.574,0.17c4.288,0.985,6.891,1.479,7.816,1.479c1.502,0,2.914-0.314,4.231-0.946
				c1.327-0.629,1.985-1.528,1.985-2.698c0-0.702-0.247-1.297-0.743-1.813c-0.488-0.505-1.059-0.764-1.696-0.764
				c-0.236,0-0.821,0.142-1.748,0.437c-0.928,0.291-1.791,0.432-2.603,0.432c-0.548,0-1.67-0.11-3.366-0.331
				s-3.024-0.331-3.962-0.331c-0.685,0-1.306,0.035-1.881,0.116c-0.563,0.078-1.09,0.161-1.543,0.268
				c-0.464,0.106-0.928,0.204-1.392,0.316c1.597-1.798,2.719-3.288,3.366-4.483c0.638-1.19,0.96-2.509,0.96-3.935V92.68h3.755
				c0.676,0,1.223-0.181,1.655-0.548c0.421-0.369,0.627-0.849,0.627-1.439c0-0.87-0.311-1.411-0.949-1.648
				c-0.637-0.236-1.532-0.349-2.696-0.349h-3.161c-0.422-1.38-0.732-2.428-0.869-3.118c-0.174-0.7-0.269-1.453-0.269-2.26
				c0-1.322,0.416-2.414,1.206-3.256c0.806-0.832,1.844-1.253,3.15-1.253c1.206,0,2.159,0.342,2.882,1.049
				c0.706,0.694,1.265,1.78,1.675,3.25c0.453,1.527,1.37,2.296,2.74,2.296c0.779,0,1.438-0.27,1.964-0.807
				c0.543-0.541,0.813-1.158,0.813-1.849c0-1.934-0.822-3.755-2.461-5.474c-0.959-0.985-2.069-1.696-3.304-2.127
				C58.975,74.715,57.473,74.498,55.745,74.498z"/>
		</defs>
		<clipPath id="SVGID_10_">
			<use xlink:href="#SVGID_9_"  overflow="visible"/>
		</clipPath>
		<g clip-path="url(#SVGID_10_)">
			<defs>
				<rect id="SVGID_11_" x="-735.674" y="-441.775" width="1621.428" height="1473.472"/>
			</defs>
			<clipPath id="SVGID_12_">
				<use xlink:href="#SVGID_11_"  overflow="visible"/>
			</clipPath>
			<rect x="37.461" y="69.432" clip-path="url(#SVGID_12_)" fill="#D9B328" width="35.679" height="42.407"/>
		</g>
	</g>
	<g>
		<defs>
			<path id="SVGID_13_" d="M105.075,74.545c-0.494,0-0.926,0.102-1.285,0.295c-0.357,0.212-0.657,0.454-0.906,0.76
				c-0.236,0.306-0.483,0.673-0.741,1.1c-0.249,0.433-0.485,0.849-0.723,1.239l-6.123,10.12l-6.852-10.737
				c-0.596-0.964-1.112-1.675-1.564-2.112c-0.442-0.438-1.017-0.658-1.75-0.658c-0.7,0-1.274,0.228-1.718,0.669
				c-0.453,0.448-0.668,1.034-0.668,1.776c0,0.405,0.073,0.783,0.226,1.121c0.164,0.333,0.49,0.906,1.006,1.698l6.338,9.939h-2.708
				c-2.007,0-3.002,0.653-3.002,1.954c0,1.327,0.995,1.991,3.002,1.991h4.784v3.052h-4.784c-2.007,0-2.991,0.669-2.991,1.991
				c0,1.295,0.995,1.948,3.003,1.948H92.4v1.692c0,2.876,0.97,4.309,2.904,4.309c1.9,0,2.859-1.433,2.859-4.309v-1.692h4.794
				c1.986,0,2.982-0.653,2.982-1.948c0-1.328-0.996-1.997-2.982-1.997h-4.794v-3.05h4.794c1.986,0,2.982-0.665,2.982-1.993
				c0-1.301-0.996-1.953-2.982-1.953h-2.696l6.099-10.073c0.391-0.615,0.66-1.133,0.844-1.543c0.175-0.411,0.269-0.863,0.269-1.358
				c0-0.622-0.226-1.15-0.668-1.588C106.352,74.762,105.777,74.545,105.075,74.545z"/>
		</defs>
		<clipPath id="SVGID_14_">
			<use xlink:href="#SVGID_13_"  overflow="visible"/>
		</clipPath>
		<g clip-path="url(#SVGID_14_)">
			<defs>
				<rect id="SVGID_15_" x="-735.674" y="-441.775" width="1621.428" height="1473.472"/>
			</defs>
			<clipPath id="SVGID_16_">
				<use xlink:href="#SVGID_15_"  overflow="visible"/>
			</clipPath>
			<rect x="77.678" y="69.479" clip-path="url(#SVGID_16_)" fill="#D9B328" width="34.862" height="42.28"/>
		</g>
	</g>
</g>
</svg>
