<?xml version="1.0" encoding="utf-8"?>
<!-- Generator: Adobe Illustrator 16.0.0, SVG Export Plug-In . SVG Version: 6.00 Build 0)  -->
<!DOCTYPE svg PUBLIC "-//W3C//DTD SVG 1.1//EN" "http://www.w3.org/Graphics/SVG/1.1/DTD/svg11.dtd">
<svg version="1.1" id="Layer_1" xmlns="http://www.w3.org/2000/svg" xmlns:xlink="http://www.w3.org/1999/xlink" x="0px" y="0px"
	 width="30px" height="30px" viewBox="0 0 30 30" enable-background="new 0 0 30 30" xml:space="preserve">
<g>
	<defs>
		<path id="SVGID_1_" d="M7.856,10.225c-2.082,1.823-0.633,3.68-0.633,3.68c-4.586,2.89-4.306,6.958-4.306,6.958
			s0.762-0.089,1.283-1.178c0.521-1.088,1.454,0.242,1.454,0.242s0.75,2.658,2.286,3.637s-0.037,1.667-0.037,1.667
			s-1.658,0.025-1.512,1.203c0.145,1.181,4.914,2.113,8.186-0.504l1.89,0.303c5.71,2.041,7.993,0.647,8.181,0.285
			c0.188-0.366-0.863-1.083-1.826-1.498c-0.967-0.414-1.091-0.981-0.235-1.565c0.854-0.585,1.221-1.776,1.722-2.978
			c0.499-1.2,1.41-0.774,1.505-0.438c0.096,0.337,0.936,1.21,0.936,1.21s1.331-1.48-2.535-7.463c0,0,0.807-1.791-0.61-3.25
			c0,0,0.064-8.067-8.063-8.082C7.391,2.443,7.856,10.225,7.856,10.225 M15.697,0.672c9.325,0,9.872,9.233,9.872,9.233
			c1.425,1.943,0.655,3.685,0.655,3.685c4.588,7.411,1.619,9.553,0.81,9.711c-0.81,0.159-1.583-0.912-1.583-0.912
			s-0.269,1.068-0.925,1.627c2.393,1.148,1.967,2.576,1.967,2.576s-0.501,4.311-10.449,1.587l-0.849-0.158
			c-9.536,3.538-10.72-1.229-10.72-1.229s-0.387-1.981,1.465-2.735c-1.082-0.674-1.465-2.1-1.465-2.1s-0.967,1.621-2.239,1.028
			c-1.271-0.593-2.042-5.864,2.74-9.67c0,0-0.695-2.26,0.888-3.608C5.861,9.71,6.287,0.672,15.697,0.672"/>
	</defs>
	<clipPath id="SVGID_2_">
		<use xlink:href="#SVGID_1_"  overflow="visible"/>
	</clipPath>
	<g clip-path="url(#SVGID_2_)">
		<defs>
			<rect id="SVGID_3_" x="-1090.811" y="-542.991" width="1911.744" height="1737.297"/>
		</defs>
		<clipPath id="SVGID_4_">
			<use xlink:href="#SVGID_3_"  overflow="visible"/>
		</clipPath>
		<rect x="-4.702" y="-5.302" clip-path="url(#SVGID_4_)" fill="#FFFFFF" width="39.403" height="40.604"/>
	</g>
</g>
</svg>
