<?xml version="1.0" encoding="utf-8"?>
<!-- Generator: Adobe Illustrator 16.0.0, SVG Export Plug-In . SVG Version: 6.00 Build 0)  -->
<!DOCTYPE svg PUBLIC "-//W3C//DTD SVG 1.1//EN" "http://www.w3.org/Graphics/SVG/1.1/DTD/svg11.dtd">
<svg version="1.1" id="Layer_1" xmlns="http://www.w3.org/2000/svg" xmlns:xlink="http://www.w3.org/1999/xlink" x="0px" y="0px"
	 width="56.321px" height="39.16px" viewBox="0 0 56.321 39.16" enable-background="new 0 0 56.321 39.16" xml:space="preserve">
<g>
	<g>
		<defs>
			<path id="SVGID_1_" d="M10.925,28.319l0.393-2.281l-1.66-1.612l2.294-0.332l1.029-2.079l1.029,2.079l2.293,0.332l-1.658,1.612
				l0.392,2.281l-2.056-1.078L10.925,28.319z M14.702,30.131c0.29,0.152,0.578,0.229,0.854,0.229c0.402,0,0.762-0.163,1.01-0.458
				c0.199-0.237,0.415-0.663,0.297-1.342l-0.328-1.907l1.391-1.351c0.483-0.469,0.662-1.038,0.492-1.563
				c-0.17-0.524-0.649-0.881-1.316-0.977l-1.925-0.279l-0.859-1.736c-0.299-0.603-0.785-0.948-1.337-0.948
				c-0.551,0-1.039,0.346-1.336,0.948l-0.86,1.737L8.86,22.763c-0.667,0.096-1.148,0.453-1.318,0.978s0.01,1.094,0.493,1.563
				l1.39,1.351l-0.327,1.905c-0.117,0.68,0.096,1.105,0.297,1.344c0.419,0.499,1.151,0.601,1.863,0.228l1.723-0.902L14.702,30.131z"
				/>
		</defs>
		<clipPath id="SVGID_2_">
			<use xlink:href="#SVGID_1_"  overflow="visible"/>
		</clipPath>
		<g clip-path="url(#SVGID_2_)">
			<defs>
				<rect id="SVGID_3_" x="-1022.506" y="-329.294" width="1602" height="981"/>
			</defs>
			<clipPath id="SVGID_4_">
				<use xlink:href="#SVGID_3_"  overflow="visible"/>
			</clipPath>
			<rect x="2.479" y="14.8" clip-path="url(#SVGID_4_)" fill="#A2B5C7" width="21.001" height="20.56"/>
		</g>
	</g>
	<g>
		<defs>
			<path id="SVGID_5_" d="M6.136,15.801l0.309,1.876L4.84,16.795l-1.603,0.88l0.308-1.875L2.199,14.43l1.855-0.282l0.786-1.667
				l0.786,1.667l1.854,0.283L6.136,15.801z M8.294,18.084l-0.276-1.687l1.166-1.188c0.441-0.451,0.6-0.997,0.433-1.497
				c-0.165-0.494-0.61-0.831-1.22-0.923l-1.577-0.24l-0.713-1.511c-0.391-0.828-1.016-0.917-1.266-0.917
				c-0.251,0-0.876,0.089-1.265,0.917l-0.714,1.511l-1.577,0.24c-0.611,0.092-1.056,0.429-1.221,0.924
				c-0.166,0.5-0.008,1.045,0.434,1.496l1.166,1.188l-0.277,1.686c-0.107,0.651,0.1,1.058,0.293,1.284
				c0.401,0.475,1.1,0.571,1.76,0.208l1.4-0.771l1.402,0.771C6.514,19.725,6.785,19.8,7.049,19.8c0.377,0,0.715-0.153,0.952-0.432
				C8.193,19.142,8.4,18.736,8.294,18.084z"/>
		</defs>
		<clipPath id="SVGID_6_">
			<use xlink:href="#SVGID_5_"  overflow="visible"/>
		</clipPath>
		<g clip-path="url(#SVGID_6_)">
			<defs>
				<rect id="SVGID_7_" x="-1022.506" y="-329.294" width="1602" height="981"/>
			</defs>
			<clipPath id="SVGID_8_">
				<use xlink:href="#SVGID_7_"  overflow="visible"/>
			</clipPath>
			<rect x="-5.001" y="5.12" clip-path="url(#SVGID_8_)" fill="#A2B5C7" width="19.682" height="19.68"/>
		</g>
	</g>
	<g>
		<defs>
			<path id="SVGID_9_" d="M45.004,26.038l0.393,2.281l-2.057-1.077l-2.056,1.078l0.393-2.281l-1.659-1.612l2.294-0.332l1.028-2.079
				l1.029,2.079l2.294,0.332L45.004,26.038z M47.461,22.763l-1.925-0.278l-0.859-1.736c-0.298-0.603-0.784-0.948-1.337-0.948
				c-0.551,0-1.038,0.345-1.336,0.948l-0.859,1.736l-1.925,0.279c-0.668,0.096-1.147,0.453-1.317,0.977
				c-0.17,0.525,0.01,1.094,0.493,1.563l1.39,1.351l-0.328,1.906c-0.117,0.68,0.098,1.105,0.297,1.343
				c0.42,0.498,1.153,0.601,1.865,0.228l1.721-0.902l1.723,0.902c0.291,0.152,0.578,0.229,0.855,0.229
				c0.402,0,0.76-0.163,1.009-0.458c0.2-0.238,0.414-0.664,0.296-1.342l-0.327-1.907l1.391-1.35
				c0.483-0.469,0.663-1.038,0.492-1.563C48.608,23.216,48.128,22.859,47.461,22.763z"/>
		</defs>
		<clipPath id="SVGID_10_">
			<use xlink:href="#SVGID_9_"  overflow="visible"/>
		</clipPath>
		<g clip-path="url(#SVGID_10_)">
			<defs>
				<rect id="SVGID_11_" x="-1022.506" y="-329.294" width="1602" height="981"/>
			</defs>
			<clipPath id="SVGID_12_">
				<use xlink:href="#SVGID_11_"  overflow="visible"/>
			</clipPath>
			<rect x="32.84" y="14.8" clip-path="url(#SVGID_12_)" fill="#A2B5C7" width="21.002" height="20.56"/>
		</g>
	</g>
	<g>
		<defs>
			<path id="SVGID_13_" d="M52.776,15.801l0.307,1.876l-1.603-0.882l-1.604,0.88l0.307-1.875l-1.345-1.372l1.854-0.282l0.787-1.667
				l0.785,1.667l1.854,0.283L52.776,15.801z M56.256,13.713c-0.165-0.495-0.609-0.832-1.22-0.924l-1.578-0.24l-0.713-1.51
				c-0.389-0.829-1.014-0.918-1.265-0.918s-0.875,0.089-1.267,0.917l-0.712,1.511l-1.577,0.24c-0.61,0.092-1.055,0.429-1.221,0.923
				c-0.166,0.5-0.009,1.045,0.435,1.497l1.164,1.188l-0.276,1.688c-0.106,0.651,0.101,1.057,0.293,1.283
				c0.403,0.474,1.1,0.569,1.76,0.207l1.401-0.771l1.401,0.771c0.271,0.149,0.543,0.225,0.808,0.225
				c0.378,0,0.716-0.154,0.953-0.433c0.191-0.227,0.398-0.633,0.291-1.283l-0.276-1.687l1.165-1.188
				C56.266,14.758,56.423,14.213,56.256,13.713z"/>
		</defs>
		<clipPath id="SVGID_14_">
			<use xlink:href="#SVGID_13_"  overflow="visible"/>
		</clipPath>
		<g clip-path="url(#SVGID_14_)">
			<defs>
				<rect id="SVGID_15_" x="-1022.506" y="-329.294" width="1602" height="981"/>
			</defs>
			<clipPath id="SVGID_16_">
				<use xlink:href="#SVGID_15_"  overflow="visible"/>
			</clipPath>
			<rect x="41.639" y="5.12" clip-path="url(#SVGID_16_)" fill="#A2B5C7" width="19.683" height="19.68"/>
		</g>
	</g>
	<g>
		<defs>
			<path id="SVGID_17_" d="M28.16,1.76c3.154,0,5.72,2.565,5.72,5.719c0,3.155-2.565,5.721-5.72,5.721s-5.72-2.566-5.72-5.721
				C22.44,4.326,25.006,1.76,28.16,1.76z M28.16,14.96c4.132,0,7.48-3.349,7.48-7.481C35.641,3.348,32.292,0,28.16,0
				c-4.13,0-7.48,3.348-7.48,7.479C20.68,11.611,24.03,14.96,28.16,14.96z"/>
		</defs>
		<clipPath id="SVGID_18_">
			<use xlink:href="#SVGID_17_"  overflow="visible"/>
		</clipPath>
		<g clip-path="url(#SVGID_18_)">
			<defs>
				<rect id="SVGID_19_" x="-1022.506" y="-329.294" width="1602" height="981"/>
			</defs>
			<clipPath id="SVGID_20_">
				<use xlink:href="#SVGID_19_"  overflow="visible"/>
			</clipPath>
			<rect x="15.68" y="-5" clip-path="url(#SVGID_20_)" fill="#A2B5C7" width="24.961" height="24.96"/>
		</g>
	</g>
	<g>
		<defs>
			<path id="SVGID_21_" d="M31.889,37.19c0.009,0.058,0.014,0.108,0.017,0.151c-0.023-0.011-0.047-0.023-0.074-0.038l-3.67-2.019
				l-3.671,2.018c-0.027,0.015-0.051,0.027-0.074,0.038c0.003-0.043,0.008-0.093,0.018-0.151l0.691-4.222l-2.938-2.998
				c-0.055-0.055-0.095-0.104-0.122-0.144c0.038-0.011,0.085-0.021,0.143-0.03l4.093-0.622l1.823-3.866
				c0.013-0.028,0.026-0.053,0.038-0.076c0.013,0.022,0.025,0.048,0.039,0.076l1.822,3.865l4.092,0.622
				c0.058,0.009,0.104,0.02,0.143,0.03c-0.028,0.041-0.068,0.089-0.124,0.145l-2.937,2.997L31.889,37.19z M33.077,33.563l2.313-2.36
				c0.601-0.612,0.823-1.328,0.611-1.965c-0.209-0.627-0.801-1.058-1.623-1.183l-3.165-0.481l-1.423-3.017
				c-0.527-1.117-1.316-1.237-1.63-1.237c-0.316,0-1.104,0.121-1.63,1.238l-1.423,3.017l-3.166,0.481
				c-0.823,0.125-1.415,0.557-1.624,1.184c-0.212,0.637,0.012,1.353,0.611,1.963l2.314,2.36l-0.547,3.34
				c-0.148,0.899,0.116,1.436,0.364,1.729c0.507,0.598,1.394,0.699,2.276,0.213l2.823-1.552l2.821,1.552
				c0.38,0.209,0.752,0.315,1.105,0.315c0.467,0,0.882-0.188,1.171-0.528c0.248-0.292,0.514-0.83,0.366-1.727L33.077,33.563z"/>
		</defs>
		<clipPath id="SVGID_22_">
			<use xlink:href="#SVGID_21_"  overflow="visible"/>
		</clipPath>
		<g clip-path="url(#SVGID_22_)">
			<defs>
				<rect id="SVGID_23_" x="-1022.506" y="-329.294" width="1602" height="981"/>
			</defs>
			<clipPath id="SVGID_24_">
				<use xlink:href="#SVGID_23_"  overflow="visible"/>
			</clipPath>
			<rect x="15.24" y="18.32" clip-path="url(#SVGID_24_)" fill="#A2B5C7" width="25.84" height="25.84"/>
		</g>
	</g>
	<g>
		<defs>
			<path id="SVGID_25_" d="M16.176,20.537c0.474-0.851,1.024-1.605,1.659-2.258c1.394-1.43,3.235-2.41,5.499-2.935
				c-0.623-0.384-1.204-0.832-1.718-1.349c-3.024,0.983-5.096,2.744-6.504,4.912c0.308,0.291,0.576,0.644,0.782,1.061L16.176,20.537
				z"/>
		</defs>
		<clipPath id="SVGID_26_">
			<use xlink:href="#SVGID_25_"  overflow="visible"/>
		</clipPath>
		<g clip-path="url(#SVGID_26_)">
			<defs>
				<rect id="SVGID_27_" x="-1022.506" y="-329.294" width="1602" height="981"/>
			</defs>
			<clipPath id="SVGID_28_">
				<use xlink:href="#SVGID_27_"  overflow="visible"/>
			</clipPath>
			<rect x="10.112" y="8.995" clip-path="url(#SVGID_28_)" fill="#A2B5C7" width="18.223" height="16.542"/>
		</g>
	</g>
	<g>
		<defs>
			<path id="SVGID_29_" d="M14.618,32.489c-0.287,0-0.516-0.228-0.521-0.424c-0.004-0.095-0.003-0.186-0.005-0.281
				c-0.068-0.031-0.139-0.059-0.208-0.095l-0.904-0.474l-0.654,0.342c0.003,0.186,0.007,0.371,0.011,0.554
				c0.031,1.181,1.074,2.137,2.281,2.137h6.729l0.016-0.09l-1.637-1.669H14.618z"/>
		</defs>
		<clipPath id="SVGID_30_">
			<use xlink:href="#SVGID_29_"  overflow="visible"/>
		</clipPath>
		<g clip-path="url(#SVGID_30_)">
			<defs>
				<rect id="SVGID_31_" x="-1022.506" y="-329.294" width="1602" height="981"/>
			</defs>
			<clipPath id="SVGID_32_">
				<use xlink:href="#SVGID_31_"  overflow="visible"/>
			</clipPath>
			<rect x="7.326" y="26.216" clip-path="url(#SVGID_32_)" fill="#A2B5C7" width="19.037" height="13.033"/>
		</g>
	</g>
	<g>
		<defs>
			<path id="SVGID_33_" d="M32.887,15.405c2.208,0.55,4.022,1.539,5.416,2.96c0.666,0.68,1.247,1.47,1.745,2.365l0.379-0.763
				c0.176-0.355,0.398-0.663,0.65-0.927c-1.422-2.167-3.488-3.94-6.462-4.96C34.096,14.587,33.514,15.029,32.887,15.405z"/>
		</defs>
		<clipPath id="SVGID_34_">
			<use xlink:href="#SVGID_33_"  overflow="visible"/>
		</clipPath>
		<g clip-path="url(#SVGID_34_)">
			<defs>
				<rect id="SVGID_35_" x="-1022.506" y="-329.294" width="1602" height="981"/>
			</defs>
			<clipPath id="SVGID_36_">
				<use xlink:href="#SVGID_35_"  overflow="visible"/>
			</clipPath>
			<rect x="27.887" y="9.079" clip-path="url(#SVGID_36_)" fill="#A2B5C7" width="18.19" height="16.651"/>
		</g>
	</g>
	<g>
		<defs>
			<path id="SVGID_37_" d="M42.437,31.689c-0.066,0.035-0.136,0.056-0.202,0.086c-0.002,0.102,0,0.199-0.002,0.302
				c-0.004,0.186-0.233,0.412-0.514,0.412h-5.125l-1.636,1.669l0.015,0.09h6.746c1.206,0,2.249-0.956,2.273-2.137
				c0.003-0.183,0.005-0.367,0.007-0.552l-0.658-0.345L42.437,31.689z"/>
		</defs>
		<clipPath id="SVGID_38_">
			<use xlink:href="#SVGID_37_"  overflow="visible"/>
		</clipPath>
		<g clip-path="url(#SVGID_38_)">
			<defs>
				<rect id="SVGID_39_" x="-1022.506" y="-329.294" width="1602" height="981"/>
			</defs>
			<clipPath id="SVGID_40_">
				<use xlink:href="#SVGID_39_"  overflow="visible"/>
			</clipPath>
			<rect x="29.958" y="26.216" clip-path="url(#SVGID_40_)" fill="#A2B5C7" width="19.041" height="13.033"/>
		</g>
	</g>
</g>
</svg>
