<?xml version="1.0" encoding="utf-8"?>
<!-- Generator: Adobe Illustrator 16.0.0, SVG Export Plug-In . SVG Version: 6.00 Build 0)  -->
<!DOCTYPE svg PUBLIC "-//W3C//DTD SVG 1.1//EN" "http://www.w3.org/Graphics/SVG/1.1/DTD/svg11.dtd">
<svg version="1.1" id="Layer_1" xmlns="http://www.w3.org/2000/svg" xmlns:xlink="http://www.w3.org/1999/xlink" x="0px" y="0px"
	 width="130.667px" height="23px" viewBox="-42.156 -11.167 130.667 23" enable-background="new -42.156 -11.167 130.667 23"
	 xml:space="preserve">
<g>
	<g>
		<defs>
			<path id="SVGID_1_" d="M83.317-0.467l-7.659-7.304c-0.479-0.454-0.479-1.188,0-1.642c0.474-0.451,1.244-0.451,1.72,0l9.731,9.279
				c0.475,0.451,0.475,1.188,0,1.642l-9.731,9.281c-0.476,0.453-1.246,0.453-1.72,0c-0.479-0.455-0.479-1.188,0-1.642l7.501-7.153
				h-4.314v-2.461H83.317z M70.833-0.467h6.378v2.461h-6.378V-0.467z M62.823-0.467h6.378v2.461h-6.378V-0.467z M54.818-0.467h6.379
				v2.461h-6.379V-0.467z M46.809-0.467h6.379v2.461h-6.379V-0.467z M38.802-0.467h6.375v2.461h-6.375V-0.467z M30.793-0.467h6.378
				v2.461h-6.378V-0.467z M22.787-0.467h6.377v2.461h-6.377V-0.467z M14.778-0.467h6.377v2.461h-6.377V-0.467z M6.772-0.467h6.378
				v2.461H6.772V-0.467z M-1.237-0.467h6.378v2.461h-6.378V-0.467z M-9.246-0.467h6.378v2.461h-6.378V-0.467z M-17.253-0.467h6.375
				v2.461h-6.375V-0.467z M-25.261-0.467h6.378v2.461h-6.378V-0.467z M-33.271-0.467h6.375v2.461h-6.375V-0.467z M-41.277-0.467
				h6.375v2.461h-6.375V-0.467z"/>
		</defs>
		<clipPath id="SVGID_2_">
			<use xlink:href="#SVGID_1_"  overflow="visible"/>
		</clipPath>
		<g clip-path="url(#SVGID_2_)">
			<g>
				<defs>
					<rect id="SVGID_3_" x="-502.303" y="-442.076" width="1391.783" height="1264.786"/>
				</defs>
				<clipPath id="SVGID_4_">
					<use xlink:href="#SVGID_3_"  overflow="visible"/>
				</clipPath>
				<rect x="-45.624" y="-14.102" clip-path="url(#SVGID_4_)" fill="#A2B5C7" width="137.438" height="29.579"/>
			</g>
		</g>
	</g>
</g>
</svg>
