<?xml version="1.0" encoding="utf-8"?>
<!-- Generator: Adobe Illustrator 16.0.0, SVG Export Plug-In . SVG Version: 6.00 Build 0)  -->
<!DOCTYPE svg PUBLIC "-//W3C//DTD SVG 1.1//EN" "http://www.w3.org/Graphics/SVG/1.1/DTD/svg11.dtd">
<svg version="1.1" id="Layer_1" xmlns="http://www.w3.org/2000/svg" xmlns:xlink="http://www.w3.org/1999/xlink" x="0px" y="0px"
	 width="18px" height="15.375px" viewBox="0 0 18 15.375" enable-background="new 0 0 18 15.375" xml:space="preserve">
<path fill="#25719B" d="M17.525,4.093l0.366-0.366c0,0-0.366-0.184-0.413-0.604c-0.047-0.422-0.333-0.226-0.333-0.226
	s-0.337,0.196-0.362,0.435c-0.024,0.239-0.097,0.528-0.158,0.626c-0.059,0.098-0.238,0.123-0.697,0.214
	c-0.46,0.092-0.604,0.354-0.604,0.354l-0.237,0.486c0,0-0.079,0.014-0.367,0.014c-0.29,0-0.316,0.145-0.316,0.145
	s0.079,0.197,0.079,0.329s-0.617,0.341-0.617,0.341s-0.263,0.302-0.407,0.329c-0.145,0.026-0.185-0.197-0.185-0.197
	s0.185-0.277,0.185-0.395s-0.145-0.906-0.169-0.998c-0.027-0.092-0.356-0.079-0.356-0.079V4.381h-0.222V4.145h-0.145V4.079
	c0,0-0.959-0.565-1.077-0.617c-0.118-0.053-0.37,0.209-0.37,0.209l-0.326-0.078l-0.276,0.078l-0.341-0.233H9.803L9.592,3.387
	c0,0-0.024-0.128-0.024-0.163c0-0.034-0.101-0.073-0.101-0.073S9.437,3.127,9.4,3.271c-5.771-0.18-7.904-1.094-7.904-1.094
	S1.47,2.274,1.455,2.321C1.439,2.367,1.548,2.544,1.548,2.544s0.054,0.371-0.147,0.44c-0.201,0.071,0-0.518,0-0.518
	s-0.24-0.062-0.309-0.162c-0.07-0.101-0.155,0.016-0.155,0.016S0.86,3.317,0.86,3.387S0.543,4.276,0.543,4.276
	S0.381,4.554,0.326,4.593c-0.054,0.039-0.007,0.31-0.007,0.31S0.265,5.382,0.172,5.467S0.115,5.784,0.115,5.784
	s0.026,0.232,0.002,0.363c-0.023,0.13,0.139,0.471,0.139,0.471L0.403,7.31v0.305c0,0,0.019,0.078,0.208,0.34
	c0.043,0.49,0.16,0.524,0.247,0.558C1.009,8.61,1.583,9.3,1.583,9.3l0.071,0.189l0.6,0.11l0.239,0.2c0,0,0.35,0.14,0.67,0.37
	c0.319,0.229,1.099,0.42,1.099,0.42s0.43,0.079,0.44-0.021c0.01-0.1,0.189-0.18,0.41-0.149c0.22,0.029,0.45,0.22,0.45,0.22
	s0.34,0.379,0.37,0.569c0.03,0.19-0.02,0.11,0.23,0.38c0.217,0.235,0.335,0.093,0.363,0.051C6.52,11.65,6.535,11.647,6.7,11.489
	c0.23-0.22,0.65,0.18,0.65,0.18s0.15,0.399,0.15,0.43c0,0.029,0.28,0.33,0.28,0.33s0.07,0.11,0.07,0.311
	c0,0.199,0.38,0.339,0.38,0.339l0.27,0.051c0,0,0.069,0.069,0.139,0.069c0.071,0,0.081-0.149,0.081-0.2c0-0.05-0.07-0.3-0.07-0.44
	c0-0.14,0.089-0.049,0.619-0.559s0.86-0.449,0.86-0.449l0.49,0.039c0,0,0.39,0.181,0.55,0.22c0.159,0.041,0.36-0.2,0.449-0.33
	c0.09-0.13-0.131-0.18-0.131-0.18s-0.099-0.039-0.068-0.11c0.029-0.069,0.619-0.01,0.619-0.01s0.21-0.06,0.539-0.109
	c0.331-0.051,0.44,0.141,0.44,0.141s0.05,0.34,0.329,0.079c0.28-0.261,0.529-0.101,0.529-0.101s0.382,0.361,0.351,0.491
	c-0.029,0.129-0.011,0.35-0.011,0.35l0.422,0.529c0,0,0.239,0.339,0.389,0.48c0.15,0.139,0.291-0.07,0.291-0.07
	s0.049-0.11,0.068-0.38c0.021-0.271-0.05-0.36-0.05-0.36l-0.215-0.346c0,0-0.148-0.256-0.45-0.795
	c-0.3-0.541,0.089-1.022,0.089-1.022s0.407-0.39,0.407-0.495c0-0.104,0.434-0.54,0.434-0.54s0.633-0.541,0.677-0.706
	c0.046-0.165-0.285-0.405-0.285-0.405l-0.285-0.3V7.243l0.18,0.015c0,0,0.061,0.286,0.105,0.406c0.045,0.121,0.165-0.42,0.165-0.42
	V6.703l0.135-0.211c0,0,0-0.385,0.01-0.472s0.337-0.231,0.337-0.231l0.346-0.174c0,0,0.194-0.097,0.262-0.202
	c0.067-0.106-0.145-0.328-0.145-0.328s-0.067-0.261-0.067-0.433C17.034,4.478,17.525,4.093,17.525,4.093z"/>
<g transform="translate(0,-952.36218)">
	<path fill="#21658B" d="M8.964,957.349c-0.014,0.002-0.027,0.006-0.041,0.011L4.93,958.77c-0.123,0.042-0.188,0.176-0.146,0.299
		c0.023,0.068,0.077,0.122,0.146,0.146l1.487,0.525v2.019c0,0.203,0.124,0.365,0.274,0.481c0.152,0.115,0.344,0.205,0.573,0.278
		c0.458,0.148,1.065,0.235,1.737,0.235c0.671,0,1.278-0.087,1.735-0.235c0.229-0.073,0.422-0.163,0.573-0.278
		c0.151-0.116,0.275-0.278,0.275-0.481v-2.019l1.174-0.415v1.196c-0.001,0.129,0.103,0.236,0.231,0.238
		c0.13,0.001,0.237-0.102,0.238-0.232c0-0.001,0-0.004,0-0.006v-1.526c0.001-0.102-0.063-0.191-0.157-0.224l-3.994-1.409
		C9.041,957.347,9.002,957.344,8.964,957.349z M9.001,957.83l3.285,1.159l-3.285,1.164l-3.289-1.159L9.001,957.83z M6.887,959.904
		l2.037,0.72c0.05,0.017,0.104,0.017,0.154,0l2.038-0.72v1.854c0,0.008-0.007,0.044-0.092,0.11
		c-0.086,0.065-0.238,0.139-0.434,0.202c-0.391,0.126-0.959,0.213-1.589,0.213c-0.63,0-1.199-0.087-1.59-0.213
		c-0.196-0.063-0.348-0.137-0.433-0.202c-0.085-0.066-0.091-0.103-0.091-0.11V959.904z"/>
</g>
</svg>
