<?xml version="1.0" encoding="utf-8"?>
<!-- Generator: Adobe Illustrator 16.0.0, SVG Export Plug-In . SVG Version: 6.00 Build 0)  -->
<!DOCTYPE svg PUBLIC "-//W3C//DTD SVG 1.1//EN" "http://www.w3.org/Graphics/SVG/1.1/DTD/svg11.dtd">
<svg version="1.1" id="Layer_1" xmlns="http://www.w3.org/2000/svg" xmlns:xlink="http://www.w3.org/1999/xlink" x="0px" y="0px"
	 width="21.75px" height="22px" viewBox="0 0 21.75 22" enable-background="new 0 0 21.75 22" xml:space="preserve">
<path fill="#FFFFFF" d="M21.153,19.713l-5.121-5.121c2.678-3.45,2.436-8.449-0.731-11.616c-1.663-1.663-3.874-2.578-6.226-2.578
	S4.514,1.313,2.851,2.976C1.188,4.639,0.272,6.849,0.272,9.2s0.916,4.563,2.578,6.225c1.663,1.663,3.873,2.579,6.225,2.579
	c1.979,0,3.855-0.65,5.393-1.847l5.121,5.121c0.216,0.216,0.499,0.324,0.782,0.324s0.566-0.108,0.782-0.324
	C21.586,20.846,21.586,20.146,21.153,19.713z M4.415,13.859c-1.244-1.244-1.93-2.899-1.93-4.659s0.686-3.415,1.931-4.659
	C5.66,3.296,7.315,2.61,9.075,2.61c1.761,0,3.415,0.686,4.66,1.931c2.569,2.569,2.569,6.749,0,9.318
	c-1.245,1.245-2.899,1.931-4.66,1.931C7.315,15.79,5.66,15.104,4.415,13.859z"/>
</svg>
