<?xml version="1.0" encoding="utf-8"?>
<!-- Generator: Adobe Illustrator 16.0.0, SVG Export Plug-In . SVG Version: 6.00 Build 0)  -->
<!DOCTYPE svg PUBLIC "-//W3C//DTD SVG 1.1//EN" "http://www.w3.org/Graphics/SVG/1.1/DTD/svg11.dtd">
<svg version="1.1" id="Layer_1" xmlns="http://www.w3.org/2000/svg" xmlns:xlink="http://www.w3.org/1999/xlink" x="0px" y="0px"
	 width="30px" height="30px" viewBox="0 0 30 30" enable-background="new 0 0 30 30" xml:space="preserve">
<g>
	<g>
		<g>
			<path fill="#A2B5C7" d="M25.015,20.104H1.585c-0.437,0-0.789,0.354-0.789,0.79v4.686c0,0.437,0.353,0.788,0.789,0.788h23.43
				c0.436,0,0.786-0.352,0.786-0.788v-4.686C25.801,20.458,25.45,20.104,25.015,20.104z M6.333,24.791H2.374v-3.109h3.959V24.791z
				 M20.646,24.791H7.911v-3.109h12.734V24.791z M24.225,24.791h-1.999v-3.109h1.999V24.791z"/>
		</g>
	</g>
	<g>
		<g>
			<path fill="#A2B5C7" d="M27.381,10.349c-0.951-0.95-1.41-1.913-1.367-2.857c0.073-1.426,1.281-2.434,1.305-2.456
				c0.337-0.275,0.392-0.767,0.118-1.107c-0.274-0.342-0.771-0.397-1.107-0.123c-0.073,0.056-1.772,1.443-1.889,3.584
				c-0.08,1.415,0.534,2.787,1.821,4.072c0.927,0.929,1.386,1.896,1.364,2.882c-0.032,1.605-1.326,2.802-1.337,2.813
				c-0.323,0.29-0.362,0.806-0.055,1.111c0.395,0.399,0.963,0.197,1.111,0.057c0.073-0.066,1.802-1.644,1.856-3.932
				C29.243,12.966,28.628,11.603,27.381,10.349z"/>
		</g>
	</g>
	<g>
		<g>
			<path fill="#A2B5C7" d="M23.784,10.349c-0.951-0.95-1.41-1.913-1.365-2.857c0.071-1.426,1.281-2.434,1.305-2.456
				c0.335-0.275,0.39-0.767,0.116-1.107c-0.274-0.342-0.772-0.397-1.107-0.123c-0.07,0.056-1.773,1.443-1.892,3.584
				c-0.077,1.415,0.538,2.787,1.824,4.072c0.933,0.936,1.394,1.902,1.37,2.888c-0.033,1.604-1.326,2.802-1.338,2.812
				c-0.323,0.292-0.361,0.807-0.054,1.113c0.397,0.398,0.96,0.195,1.111,0.057c0.073-0.066,1.802-1.644,1.856-3.931
				C25.652,12.962,25.036,11.598,23.784,10.349z"/>
		</g>
	</g>
</g>
</svg>
