<?xml version="1.0" encoding="utf-8"?>
<!-- Generator: Adobe Illustrator 16.0.0, SVG Export Plug-In . SVG Version: 6.00 Build 0)  -->
<!DOCTYPE svg PUBLIC "-//W3C//DTD SVG 1.1//EN" "http://www.w3.org/Graphics/SVG/1.1/DTD/svg11.dtd">
<svg version="1.1" id="Layer_1" xmlns="http://www.w3.org/2000/svg" xmlns:xlink="http://www.w3.org/1999/xlink" x="0px" y="0px"
	 width="18px" height="15.375px" viewBox="0 0 18 15.375" enable-background="new 0 0 18 15.375" xml:space="preserve">
<g>
	<path fill="#25719B" d="M17.717,2.307v11.116c0,0.43-0.355,0.785-0.784,0.785h-6.167c-0.112,0.466-0.541,0.822-1.065,0.822H8.3
		c-0.506,0-0.935-0.356-1.065-0.822H1.067c-0.429,0-0.784-0.355-0.784-0.785V2.307c0-0.431,0.355-0.785,0.784-0.785h0.505v11.267
		H8.3h1.4h6.728V1.521h0.505C17.381,1.521,17.717,1.876,17.717,2.307z M2.302,11.535V1.707c0-0.261,0.169-0.484,0.41-0.56
		C4.749,0.549,6.953,0.53,9.01,1.11c0.393-0.112,0.803-0.206,1.196-0.262v7.398c0,0.467,0.372,0.841,0.841,0.841
		c0.205,0,0.41-0.074,0.56-0.225l0.468-0.41l0.467,0.41c0.15,0.131,0.355,0.225,0.561,0.225c0.467,0,0.841-0.374,0.841-0.841V0.849
		c0.448,0.073,0.877,0.169,1.308,0.299l0.058,0.019c0.241,0.075,0.41,0.299,0.41,0.561v9.829c0,0.187-0.094,0.354-0.225,0.465
		c-0.149,0.113-0.336,0.15-0.505,0.095H14.95c-1.868-0.541-3.885-0.541-5.755,0H9.159H9.141c-0.038,0-0.076,0.019-0.112,0.019
		c-0.019,0-0.019,0-0.038,0H8.972c-0.02,0-0.02,0-0.036,0c-0.038,0-0.057,0-0.093-0.019h-0.02H8.785
		c-1.868-0.541-3.887-0.541-5.755,0H2.992c-0.055,0.019-0.111,0.019-0.167,0.019c-0.131,0-0.243-0.038-0.338-0.113
		C2.395,11.891,2.302,11.723,2.302,11.535z M4.227,3.464c0.056,0.149,0.187,0.225,0.317,0.225c0.038,0,0.074,0,0.112-0.019
		c0.841-0.28,1.718-0.3,2.542,0C7.384,3.726,7.57,3.633,7.627,3.445c0.056-0.187-0.038-0.373-0.224-0.43
		C6.412,2.68,5.385,2.68,4.413,3.034C4.263,3.092,4.17,3.297,4.227,3.464z M4.227,4.996c0.056,0.149,0.187,0.225,0.317,0.225
		c0.038,0,0.074,0,0.112-0.019c0.841-0.28,1.718-0.3,2.542,0C7.384,5.258,7.57,5.165,7.627,4.978
		c0.056-0.187-0.038-0.373-0.224-0.43c-0.991-0.336-2.019-0.336-2.99,0.019C4.263,4.623,4.17,4.81,4.227,4.996z M4.227,6.509
		c0.056,0.15,0.187,0.226,0.317,0.226c0.038,0,0.074,0,0.112-0.019c0.841-0.281,1.718-0.3,2.542,0
		C7.384,6.771,7.57,6.678,7.627,6.491c0.056-0.188-0.038-0.373-0.224-0.431c-0.991-0.336-2.019-0.336-2.99,0.02
		C4.263,6.136,4.17,6.323,4.227,6.509z M4.227,8.023c0.056,0.148,0.187,0.224,0.317,0.224c0.038,0,0.074,0,0.112-0.019
		c0.841-0.28,1.718-0.298,2.542,0C7.384,8.284,7.57,8.191,7.627,8.004c0.056-0.186-0.038-0.373-0.224-0.43
		c-0.991-0.336-2.019-0.336-2.99,0.019C4.263,7.648,4.17,7.855,4.227,8.023z M4.227,9.556c0.056,0.148,0.187,0.223,0.317,0.223
		c0.038,0,0.074,0,0.112-0.018c0.841-0.28,1.718-0.299,2.542,0C7.384,9.816,7.57,9.724,7.627,9.536
		c0.056-0.186-0.038-0.373-0.224-0.43c-0.991-0.336-2.019-0.336-2.99,0.02C4.263,9.163,4.17,9.368,4.227,9.556z M13.139,0.4
		c-0.71-0.075-1.42-0.075-2.13,0c-0.057,0-0.095,0.056-0.095,0.111v7.735c0,0.131,0.151,0.188,0.245,0.113l0.821-0.748
		c0.056-0.057,0.132-0.057,0.187,0l0.822,0.748c0.093,0.093,0.243,0.018,0.243-0.113V0.512C13.251,0.438,13.194,0.4,13.139,0.4z"/>
</g>
</svg>
