<?xml version="1.0" encoding="utf-8"?>
<!-- Generator: Adobe Illustrator 16.0.0, SVG Export Plug-In . SVG Version: 6.00 Build 0)  -->
<!DOCTYPE svg PUBLIC "-//W3C//DTD SVG 1.1//EN" "http://www.w3.org/Graphics/SVG/1.1/DTD/svg11.dtd">
<svg version="1.1" id="Layer_1" xmlns="http://www.w3.org/2000/svg" xmlns:xlink="http://www.w3.org/1999/xlink" x="0px" y="0px"
	 width="19.04px" height="19.08px" viewBox="0 0 19.04 19.08" enable-background="new 0 0 19.04 19.08" xml:space="preserve">
<g>
	<g>
		<defs>
			<path id="SVGID_1_" d="M4.6,16.24c1.44,1.08,3.16,1.64,4.96,1.64s3.52-0.56,4.96-1.64c2.16-1.6,3.36-4.04,3.36-6.68
				c0-4.601-3.72-8.32-8.32-8.32s-8.32,3.72-8.32,8.32C1.24,12.2,2.44,14.64,4.6,16.24z M9.56,19.08c-2.04,0-4-0.64-5.68-1.88
				C1.48,15.4,0,12.561,0,9.521C0,4.28,4.28,0,9.52,0c5.24,0,9.52,4.28,9.52,9.521c0,3-1.44,5.88-3.88,7.68
				C13.6,18.4,11.6,19.08,9.56,19.08z"/>
		</defs>
		<clipPath id="SVGID_2_">
			<use xlink:href="#SVGID_1_"  overflow="visible"/>
		</clipPath>
		<g clip-path="url(#SVGID_2_)">
			<defs>
				<rect id="SVGID_3_" x="-260.84" y="-371.677" width="1604" height="2424"/>
			</defs>
			<clipPath id="SVGID_4_">
				<use xlink:href="#SVGID_3_"  overflow="visible"/>
			</clipPath>
			<rect x="-5" y="-5" clip-path="url(#SVGID_4_)" fill="#FFFFFF" width="29.04" height="29.08"/>
		</g>
	</g>
	<g>
		<defs>
			<path id="SVGID_5_" d="M9.56,3.8c-1.08,0-1.8,0.88-1.8,2.2c0,1.4,0.84,2.6,1.8,2.6s1.8-1.2,1.8-2.6
				C11.36,4.68,10.64,3.8,9.56,3.8z M9.56,9.8c-1.64,0-3-1.72-3-3.8c0-2,1.24-3.399,3-3.399s3,1.399,3,3.399
				C12.56,8.08,11.2,9.8,9.56,9.8z"/>
		</defs>
		<clipPath id="SVGID_6_">
			<use xlink:href="#SVGID_5_"  overflow="visible"/>
		</clipPath>
		<g clip-path="url(#SVGID_6_)">
			<defs>
				<rect id="SVGID_7_" x="-260.84" y="-371.677" width="1604" height="2424"/>
			</defs>
			<clipPath id="SVGID_8_">
				<use xlink:href="#SVGID_7_"  overflow="visible"/>
			</clipPath>
			<rect x="1.56" y="-2.399" clip-path="url(#SVGID_8_)" fill="#FFFFFF" width="16" height="17.2"/>
		</g>
	</g>
	<g>
		<defs>
			<path id="SVGID_9_" d="M14.88,17.32c-0.32,0-0.6-0.24-0.6-0.6c-0.08-2.56-2.16-4.6-4.72-4.6s-4.64,2-4.72,4.6
				c0,0.32-0.28,0.6-0.6,0.6c-0.32,0-0.6-0.28-0.6-0.6c0.08-3.24,2.68-5.76,5.92-5.76s5.84,2.521,5.92,5.76
				C15.48,17.04,15.24,17.32,14.88,17.32L14.88,17.32z"/>
		</defs>
		<clipPath id="SVGID_10_">
			<use xlink:href="#SVGID_9_"  overflow="visible"/>
		</clipPath>
		<g clip-path="url(#SVGID_10_)">
			<defs>
				<rect id="SVGID_11_" x="-260.84" y="-371.677" width="1604" height="2424"/>
			</defs>
			<clipPath id="SVGID_12_">
				<use xlink:href="#SVGID_11_"  overflow="visible"/>
			</clipPath>
			<rect x="-1.36" y="5.96" clip-path="url(#SVGID_12_)" fill="#FFFFFF" width="21.84" height="16.36"/>
		</g>
	</g>
</g>
</svg>
