<?xml version="1.0" encoding="utf-8"?>
<!-- Generator: Adobe Illustrator 16.0.0, SVG Export Plug-In . SVG Version: 6.00 Build 0)  -->
<!DOCTYPE svg PUBLIC "-//W3C//DTD SVG 1.1//EN" "http://www.w3.org/Graphics/SVG/1.1/DTD/svg11.dtd">
<svg version="1.1" id="Layer_1" xmlns="http://www.w3.org/2000/svg" xmlns:xlink="http://www.w3.org/1999/xlink" x="0px" y="0px"
	 width="30px" height="30px" viewBox="0 0 30 30" enable-background="new 0 0 30 30" xml:space="preserve">
<g>
	<defs>
		<path id="SVGID_1_" d="M9.919,17.246c-1.932,0.391-3.236,2.021-2.912,3.639c0.323,1.619,2.151,2.615,4.083,2.225
			c1.932-0.392,3.235-2.02,2.911-3.64C13.679,17.852,11.849,16.856,9.919,17.246z M25.655,10.956
			C25.18,8.62,23.351,6.78,21.028,6.302c-0.562-0.116-1.112,0.248-1.228,0.814c-0.116,0.566,0.246,1.119,0.809,1.236
			c1.509,0.311,2.699,1.506,3.008,3.024c0.116,0.565,0.666,0.93,1.229,0.814C25.409,12.074,25.771,11.521,25.655,10.956z
			 M29.79,11.109c-0.002-4.952-3.993-8.965-8.919-8.965c-0.574,0-1.04,0.468-1.04,1.046c0,0.579,0.466,1.046,1.04,1.046
			c3.776,0,6.838,3.079,6.838,6.876c0,0.579,0.467,1.047,1.04,1.047c0.575,0,1.041-0.468,1.041-1.047
			C29.79,11.113,29.79,11.11,29.79,11.109z M12.378,25.658c-4.796,0.478-8.934-1.713-9.245-4.897
			c-0.312-3.183,3.324-6.152,8.119-6.632c4.794-0.48,8.934,1.713,9.245,4.895C20.807,22.209,17.174,25.179,12.378,25.658z
			 M21.968,15.102c-0.408-0.125-0.688-0.21-0.474-0.759c0.462-1.191,0.51-2.219,0.009-2.953c-0.941-1.375-3.513-1.301-6.461-0.037
			c0-0.001-0.926,0.415-0.69-0.337c0.454-1.493,0.384-2.743-0.321-3.465c-1.599-1.639-5.853,0.062-9.503,3.796
			c-2.732,2.797-4.317,5.762-4.317,8.327c0,4.902,6.142,8.183,12.151,8.183c7.877,0,13.118-4.984,13.118-8.703
			C25.479,16.904,23.63,15.629,21.968,15.102z"/>
	</defs>
	<clipPath id="SVGID_2_">
		<use xlink:href="#SVGID_1_"  overflow="visible"/>
	</clipPath>
	<g clip-path="url(#SVGID_2_)">
		<defs>
			<rect id="SVGID_3_" x="-845.189" y="-486.74" width="1486.416" height="1350.78"/>
		</defs>
		<clipPath id="SVGID_4_">
			<use xlink:href="#SVGID_3_"  overflow="visible"/>
		</clipPath>
		<rect x="-4.435" y="-2.502" clip-path="url(#SVGID_4_)" fill="#FFFFFF" width="38.87" height="35.004"/>
	</g>
</g>
</svg>
