<?xml version="1.0" encoding="utf-8"?>
<!-- Generator: Adobe Illustrator 16.0.0, SVG Export Plug-In . SVG Version: 6.00 Build 0)  -->
<!DOCTYPE svg PUBLIC "-//W3C//DTD SVG 1.1//EN" "http://www.w3.org/Graphics/SVG/1.1/DTD/svg11.dtd">
<svg version="1.1" id="Layer_1" xmlns="http://www.w3.org/2000/svg" xmlns:xlink="http://www.w3.org/1999/xlink" x="0px" y="0px"
	 width="30px" height="30px" viewBox="0 0 30 30" enable-background="new 0 0 30 30" xml:space="preserve">
<g>
	<path fill="#A2B5C7" d="M15,10.912c-2.254,0-4.089,1.83-4.089,4.084c0,2.254,1.835,4.084,4.089,4.084
		c2.254,0,4.084-1.83,4.084-4.084C19.084,12.741,17.254,10.912,15,10.912z M15,17.626c-1.45,0-2.63-1.182-2.63-2.63
		c0-1.449,1.18-2.63,2.63-2.63c1.448,0,2.631,1.181,2.631,2.63C17.631,16.444,16.448,17.626,15,17.626z"/>
	<path fill="#A2B5C7" d="M6.348,4.474c0.097-0.097,0.097-0.253,0-0.351L5.679,3.455c-0.097-0.098-0.264-0.098-0.351,0
		c-6.384,6.374-6.384,16.757,0,23.135c0.044,0.048,0.107,0.077,0.176,0.077l0,0c0.068,0,0.136-0.029,0.18-0.077l0.669-0.724
		c0.092-0.097,0.087-0.254-0.005-0.341C0.55,19.715,0.55,10.277,6.348,4.474z"/>
	<path fill="#A2B5C7" d="M24.672,3.406c-0.088-0.098-0.263-0.098-0.352,0l-0.668,0.668c-0.098,0.098-0.098,0.254,0,0.352
		c5.788,5.841,5.788,15.299,0,21.1c-0.098,0.098-0.098,0.254,0,0.351l0.668,0.664c0.05,0.05,0.112,0.078,0.177,0.078
		c0.063,0,0.127-0.028,0.175-0.078c3.09-3.084,4.788-7.196,4.788-11.568C29.46,10.599,27.762,6.49,24.672,3.406z"/>
	<path fill="#A2B5C7" d="M9.359,8.393c-3.631,3.631-3.631,9.531,0,13.159c0.043,0.05,0.107,0.079,0.175,0.079
		c0.063,0,0.127-0.029,0.175-0.079l0.669-0.673c0.098-0.098,0.098-0.252,0-0.349c-3.06-3.064-3.06-8.048,0-11.112
		c0.098-0.098,0.098-0.254,0-0.351L9.709,8.393C9.612,8.296,9.446,8.296,9.359,8.393z"/>
	<path fill="#A2B5C7" d="M20.466,8.364c-0.069,0-0.132,0.029-0.176,0.078l-0.669,0.674c-0.098,0.098-0.098,0.253,0,0.352
		c1.484,1.483,2.305,3.455,2.305,5.554c0,2.097-0.82,4.069-2.305,5.553c-0.098,0.098-0.098,0.256,0,0.354l0.669,0.674
		c0.044,0.048,0.106,0.077,0.176,0.077c0.067,0,0.132-0.029,0.175-0.077c1.768-1.765,2.738-4.103,2.738-6.581
		c0-2.479-0.971-4.817-2.738-6.579C20.598,8.393,20.533,8.364,20.466,8.364z"/>
</g>
</svg>
